/* XPM */
static char *_cf379e899664cd4cc16cdabe4c69b9bNrgr38znnkKArKfv[] = {
/* columns rows colors chars-per-pixel */
"64 64 201 2 ",
"   c black",
".  c #010101",
"X  c #020202",
"o  c gray1",
"O  c #040404",
"+  c gray2",
"@  c #060606",
"#  c #070707",
"$  c gray3",
"%  c #090909",
"&  c gray4",
"*  c #0B0B0B",
"=  c #0C0C0C",
"-  c gray5",
";  c #0E0E0E",
":  c gray6",
">  c #101010",
",  c #111111",
"<  c gray7",
"1  c #131313",
"2  c gray8",
"3  c #151515",
"4  c #161616",
"5  c gray9",
"6  c #181818",
"7  c #191919",
"8  c gray10",
"9  c #1B1B1B",
"0  c gray11",
"q  c #1D1D1D",
"w  c #1E1E1E",
"e  c gray12",
"r  c #202020",
"t  c gray13",
"y  c #222222",
"u  c #232323",
"i  c gray14",
"p  c #252525",
"a  c gray15",
"s  c #272727",
"d  c #282828",
"f  c gray16",
"g  c #2A2A2A",
"h  c gray17",
"j  c #2C2C2C",
"k  c #2D2D2D",
"l  c gray18",
"z  c #2F2F2F",
"x  c gray19",
"c  c #313131",
"v  c #323232",
"b  c gray20",
"n  c #343434",
"m  c #353535",
"M  c gray21",
"N  c #373737",
"B  c gray22",
"V  c #393939",
"C  c #3A3A3A",
"Z  c gray23",
"A  c #3C3C3C",
"S  c gray24",
"D  c #3E3E3E",
"F  c #3F3F3F",
"G  c gray25",
"H  c #414141",
"J  c gray26",
"K  c #434343",
"L  c #444444",
"P  c gray27",
"I  c gray28",
"U  c #484848",
"Y  c #494949",
"T  c gray29",
"R  c #4B4B4B",
"E  c #4C4C4C",
"W  c gray30",
"Q  c #4E4E4E",
"!  c gray31",
"~  c #505050",
"^  c #515151",
"/  c gray32",
"(  c #535353",
")  c #555555",
"_  c #565656",
"`  c gray34",
"'  c #585858",
"]  c gray35",
"[  c #5A5A5A",
"{  c #5B5B5B",
"}  c gray36",
"|  c #5D5D5D",
" . c gray37",
".. c #5F5F5F",
"X. c #606060",
"o. c gray38",
"O. c #626262",
"+. c gray39",
"@. c #646464",
"#. c #656565",
"$. c gray40",
"%. c #676767",
"&. c #686868",
"*. c DimGray",
"=. c #6A6A6A",
"-. c gray42",
";. c #6C6C6C",
":. c #6D6D6D",
">. c gray43",
",. c #6F6F6F",
"<. c gray44",
"1. c #717171",
"2. c #727272",
"3. c gray45",
"4. c #747474",
"5. c gray46",
"6. c #767676",
"7. c #777777",
"8. c gray47",
"9. c #797979",
"0. c gray48",
"q. c #7B7B7B",
"w. c #7C7C7C",
"e. c gray49",
"r. c #7E7E7E",
"t. c gray50",
"y. c #808080",
"u. c #818181",
"i. c gray51",
"p. c #838383",
"a. c #848484",
"s. c gray52",
"d. c #868686",
"f. c gray53",
"g. c #888888",
"h. c #898989",
"j. c gray54",
"k. c #8B8B8B",
"l. c gray55",
"z. c #8D8D8D",
"x. c #8E8E8E",
"c. c gray56",
"v. c #909090",
"b. c gray57",
"n. c #929292",
"m. c #939393",
"M. c gray58",
"N. c #959595",
"B. c gray59",
"V. c #979797",
"C. c #989898",
"Z. c gray60",
"A. c #9A9A9A",
"S. c #9B9B9B",
"D. c gray61",
"F. c #9D9D9D",
"G. c gray62",
"H. c #9F9F9F",
"J. c #A0A0A0",
"K. c gray63",
"L. c #A2A2A2",
"P. c gray64",
"I. c #A4A4A4",
"U. c #A5A5A5",
"Y. c gray65",
"T. c #A7A7A7",
"R. c gray66",
"E. c #A9A9A9",
"W. c #AAAAAA",
"Q. c gray67",
"!. c #ACACAC",
"~. c gray68",
"^. c #AEAEAE",
"/. c #AFAFAF",
"(. c gray69",
"). c #B1B1B1",
"_. c #B2B2B2",
"`. c gray70",
"'. c #B4B4B4",
"]. c gray71",
"[. c #B6B6B6",
"{. c #B7B7B7",
"}. c gray72",
"|. c #B9B9B9",
" X c gray73",
".X c #BBBBBB",
"XX c #BCBCBC",
"oX c gray74",
"OX c gray",
"+X c gray75",
"@X c #C0C0C0",
"#X c #C1C1C1",
"$X c gray76",
"%X c #C3C3C3",
"&X c gray77",
"*X c #C5C5C5",
"=X c #C6C6C6",
"-X c gray78",
";X c #CACACA",
":X c #CDCDCD",
">X c gray83",
/* pixels */
"                                O O O O O O O O   O $ - $ O O $ $ $ $ $ $ $ $ O $ O $ O O O O O O O                             ",
"                                O O O O O O O $ - O   O $ > > - - $ O O $ $ - - $ O $ O O O O O O O                             ",
"                        O O O O O O O $ O $ $ $ $ - - - $ O $ $ - - $ $ $ $ $ $ $ $ $ $ $ O O O O O O                           ",
"                        O O O O O $ $ $ $ $ $ $ O - > - O O $ - - - - - - - $ $ $ $ $ $ $ $ O $ O O O O O                       ",
"                      O O O O O O O $ $ $ - $ - - $ O O 4 p p t > > - - - - - - - - - $ $ $ $ $ O O O O O O                     ",
"                  O   O O O O $ $ $ $ $ $ - - - - 4 q p c V V c h t 7 > - - - - - - - - $ $ $ $ $ $ O O O O                     ",
"                O O O O O O O O $ $ $ $ - - - > 4 l S S n l l h l h t 7 4 > - - > - - - - - $ $ $ $ $ O O                       ",
"                O   O O O $ $ $ $ $ $ - - - > > n S S l p p p p 7 7 q q t q 7 4 > > - - - $ $ $ $ $ O O O O                     ",
"              O O O O O O $ $ $ -   - > O 4 n L V n n p n h h p p t q 7 7 q t t 4 > - > > - - > $ $ $ O O O O O O               ",
"              O O O O O O $ $ $ O > > - > t c G l 7 7 q p 4 p c 4 > > 4 q t t q q 7 > > > - $ - $ $ $ $ $ O O O                 ",
"                O O O $ $ $ $ $ $ 4 > > t t p S h 4 7 4 7 t n c h p q 4 4 7 7 q p q 4 > > - - - - - $ $ $ O O O O O O           ",
"                O O O $ $ $ - - > > - q l p p S q q c c 4 4 h l n c l t 4 > 7 p p t 7 4 4 > > > - - $ $ $ $ O O O O O           ",
"          O   O O O $ $ $ - - - > $ 4 p p c S V S 7 l [ Q l 4 $ h p t q 7 4 7 t p p q 7 4 4 > > - - - $ $ $ O O O O             ",
"        O O O O O O O $ - - - - > > q 7 4 n G t 4 > c r.F.F.8._ ( V t 7 7 4 4 > t p p t 7 4 > > > > - - $ $ $ O O O O           ",
"        O O O O O O $ $ - - - > > 7 q 4 7 h l q c 2.I.{.I.(.I.C.V.7.Q n h q > > 7 p h p 7 4 4 > > > - - $ $ O O O O O           ",
"        O O O O O O $ $ - - > > > 4 > q c h t c 2.Q.&X&XQ.~.I.Q.Q.V.p.*.Y l 7 4 > t h p q 7 7 7 > > - - $ $ $ O O O O           ",
"          O O O $ $ $ - - - > 4 - 7 4 p G l h ;.~..X@X.X(.~.Q.J.J.V.p.7.#.Y h 7 7 > t h 7 7 q > 4 > - - - - $ $ $ O O O         ",
"        O O O O $ $ $ - - - > 4 4 t 7 p l n h h.(.{..X(.~.(.~.J.V.b.h.8.*.} L h 7 > t c p 7 q 7 4 > > - - - $ $ O O O O         ",
"        O O O O $ $ $ - - > > 4 4 q 7 p 7 c l I.&X&X&X.XQ.I.(.{..XQ.V.r.*.*._ l 4 > q l h 7 4 q 4 4 > - - - $ $ O O O O O       ",
"          O O $ $ $ - - - > 4 4 4 7 q p q 7 L (.@X{..XoX(.~.{.(.c.2.O._ ( #.O.V > > 7 p h q 4 q 4 4 > > - - $ $ O O O O O       ",
"        O O O $ $ $ - - - > 4 4 q 7 t p l   2..X.Xp.#.2.f.I..X{.O.Q Q ( Q } O.Q 4 7 7 q p t 7 q 7 4 > > - - - $ $ O O O O O     ",
"      O O O O $ $ $ - - > > 4 7 p 7 t q p O C..X8.O.;.h.J..X(.p.b.b.b.h.;.O.O._ p 7 4 q p t q 7 7 7 4 > > > - $ $ O O O O O O O ",
"      O O O O $ $ - - - > > 4 7 q q t p $ h (.{.c.V.I.F.V..XoXf.I.Q.C.r.*.*.;.#.n > > h h t q 7 7 7 4 > > > - - $ $ O O O O     ",
"    O O O O O $ $ $ - - > > 4 7 4 t p V   _ oX~.~.(.I.2.O.J..Xr.b.h.#.S Y *.7.;.Y > > n n t t t q 7 4 > > > - - $ $ O O O O O   ",
"    O O O $ $ $ $ - > > 4 4 7 7 t 7 p q O } @X{.I.f.2.} *.Q.&X;.O.J.C.8.O.( *.8.O.  c [ ( 7 q p q 7 4 4 > > - - $ $ $ $ O O     ",
"    O O O $ $ $ $ - > > 4 4 7 7 7 c O O.c Q {.oXI..XoXh.f.I.&Xh.( b.I.b.7.*.;.7.O.t [ } L 7 h q q 7 4 4 > > - - $ $ $ $ O O     ",
"    O O O O $ $ $ - > > 4 4 7 7 7 c   h.h.Q ~.oXJ.oX@XC.~..X&XC.G 2.I.J.h.p.8.8.#.c ;.} S q l 7 q 7 4 4 > > - - $ $ $ O O O     ",
"      O O O $ $ $ - - > 4 4 7 7 q h O c.@X;.I.oXoX(.I.I..X@X.Xb.Q } F.~.C.c.p.p.*.c [ O.n t p q q 7 7 4 > > - - $ $ $ O O O     ",
"      O O O $ $ - - - > > 4 7 7 q l   h.@Xh.C.@XoX{.~..XQ.oX&XQ.*.[ b..XQ.c.8.r.2.L _ O.h p q p q 7 4 4 > > - - $ $ $ O O       ",
"      O O O $ $ - - - > > 4 7 7 q l   #.oXr.F.oXQ..X{.~.b.{.:X~.*.Q r.{.~.h.8.r.7.;.;._ q l q p q 7 4 4 > > - - $ $ $ O O       ",
"    O O O $ $ $ $ - - > > 4 7 7 q t 7 p (.V.Q.{.{.@X{.c.V.I.{.f.[ Q ;.Q.Q.f.r.r.r.r.8.S t l t t q 7 4 4 > > - - $ $ $ $ O       ",
"    O O O $ $ $ $ - - > > 4 7 7 q q l O h.>XQ.(.{.oX(.p.(.Q.(.h.} } 2.I.I.p.p.r.p.7.*.t l h t q q 7 4 4 > > - - $ $ $ $ O O     ",
"  O O O O $ $ $ $ - - > > 4 7 7 q q h 4 L oX{.(.oX(.F.C..X@XI.J.f.p.r.7.I.h.8.8.r.8.Y p t p p t q 7 4 4 > > - $ $ $ $ O O O O O ",
"    O O O $ $ $ $ - - > > 4 7 7 q q t c   c.;XQ.oX.XI.J.{..XJ.V.f.*.O.7.oXF.p.r.f.#.V h h p t q q 7 4 4 > - - $ $ $ $ O O O O O ",
"    O O O O O $ $ - - > > 4 4 7 q 4 p t 7 G b..X{.oX(.J.J.J.C.V.2.Q Q 8..Xb.7.p.r.L p h h t t q q 7 4 > > - - $ $ $ $ O O O   O ",
"    O O O O O $ $ - - - > > 4 7 q q 7 p h c t C.{.oXQ.C.F.I.I.V.8.#.*.f.(.c.8.p.;.l q l p t t q 7 7 4 > > - - $ $ $ $ O O       ",
"      O O O O O $ $ - - > > 4 4 q q p p 7 l > l Q..XJ.F.{.@X.XC.b.h.p.p.F.V.r.2.O.p h c t t q 7 7 4 4 > > - - - $ $ $ O         ",
"      O O O O O $ $ - - - > 4 4 7 7 t 7 h p n   ;.~.~.~.@X&XoXQ.b.C.c.7.8.r.7.*._ q p l q t q q 7 4 > > > - - $ $ $ O O O       ",
"      O O O O O $ $ - - - > > 4 > p $ h p l h t l F.{.(.oX{.{.{.C.F.c.7.*.;.2.2.} q q t q t 4 q 7 4 > > > - - $ $ O O O O       ",
"      O O O O O $ $ - - - > > 4 7 > p 7 q 7 t l q b.J.J.@X.X{.(.I.b.7.*.#.;.*.*.8.l t p p t - 7 4 4 > > - - - $ $ O O O O       ",
"        O O O O $ $ $ $ - - > > > 7 7 q t q t l   h.I.C.~.(.~.F.c.c.;.} ;.#.} 7.C.V   h t t > 4 4 > > > - - $ O $ $ O O         ",
"        O O O O $ $ $ - - - > > > 7 7 7 q q t l   p.I.C.J.C.V.c.8.8.;.;.2.O.*.b.F.n   p q q 4 4 > > > - - - $ O $ O O O         ",
"        O O O O $ $ $ - - - > > > 4 4 7 q q t c   r.Q.F.F.b.c.f.7.2.2.7.;.#.p.Q.V.h > t 7 q 7 7 > > - $ - $ $ O O O O O         ",
"            O O $ $ $ $ $ - - > - 4 4 7 t t p n O p.~.J.J.J.V.h.f.r.8.;.#.8.C.I.r.7 7 7 7 q q q 4 > - - $ $ $ O O O O O         ",
"          O     O O O O $ - - > > 7 q q p p p c   p.{.F.C.I.J.V.b.r.r.r.p.V.J.b.} - q 4 7 q q 7 7 4 > - $ $ $ O O O             ",
"                    O O $ - - > 7 q t t p t t l   7.oXI.b.C.F.F.h.7.p.F.I.J.V.8.G > q 7 q 7 7 4 7 4 > - - $ $ O O O             ",
"              O   O O $ - - > 4 7 q q q t q q h   *.(.Q.V.V.c.b.r.p.V.Q.Q.C.p.2.h 7 7 7 q 4 4 4 4 4 > - - $ $ O O O             ",
"              O O O O $ - > 4 4 4 7 7 7 q q t l   [ J.I.F.b.r.r.8.V.Q.J.b.h.8.*.7 q > 7 q 4 7 4 > > - - - $ $ O O O             ",
"                O O $ $ - - > > 4 4 7 7 7 q t p   _ c.V.F.b.r.8.c.F.V.b.f.p.r._ $ 4 7 4 4 7 7 > > - - - $ $ O $                 ",
"                  O $ $ - - - > > 4 4 7 7 7 q t   ( f.p.8.*._ ( O.p.f.8.;.7.;.n > 7 7 4 4 4 4 > - - - $ $ $ O O                 ",
"                  O O $ $ - - - > > > 4 4 4 7 q   Q 2.O.( Q Q ( ( _ } #.*.7.} > 4 7 7 > > 4 > $ - - $ $ O O O O                 ",
"                  O O $ $ $ $ - - - > > > 4 4 7 O G O.( Y ( [ [ Y V L } O.O.G O 7 7 4 > > > > $ $ $ $ O O O                     ",
"                    O O O $ $ $ - - - > > > 4 4 O c Q Q Q ( Y V c c Y _ Y S h - 4 4 > - - > - $ $ $ O O O O                     ",
"                    O O O O O $ $ - - - - - > 4 - p V G G G n t h n Y S c c q $ > > - - - - - $ $ $ O O                         ",
"                    O   O O O O $ $ $ $ $ $ - > > 7 h c h h h t h c V h l l > $ - - - - $ $ $ $ O O O O O                       ",
"                            O O O O O O $ $ $ - $ > p c p 7 7 7 t p l p p 4   4 $ - - - $ O O $ O O O O O                       ",
"                                O O O O $ $ $ $ $ > 7 7 7 4 > > 7 7 q 7 4 - $ $ $ $ $ $ $ O O O     O                           ",
"                                O O O O $ $ $ $ $ - 4 4 > > - - > 4 4 4 - $ $ $ $ $ $ O O O O O O O                             ",
"                                      O O O O $ O $ - - - $ $ $ - - > - $ O O O $ O O O O O O                                   ",
"                                        O O O O O O $ $ $ O $ $ $ - - $ O O O O O O O   O                                       ",
"                                          O O O O O O O O O O $ $ $ $ O O O O O O   O                                           ",
"                                                O O O O O O O O O O O   O O O O                                                 ",
"                                                      O O O O           O O                                                     ",
"                                                        O O O           O O O                                                   "
};
