/* XPM */
static char *_84dad75f6f54cd28c778e368d590c6c4lKEiyD7KQkrDht9[] = {
/* columns rows colors chars-per-pixel */
"64 64 255 2 ",
"   c #030103",
".  c #0B0101",
"X  c #01020B",
"o  c #0B070A",
"O  c #130200",
"+  c #1A0101",
"@  c #160904",
"#  c #050816",
"$  c #170C15",
"%  c #16161A",
"&  c #111214",
"*  c #271917",
"=  c #2A1105",
"-  c #322613",
";  c #0B1523",
":  c #171A28",
">  c #18132E",
",  c #231A25",
"<  c #192229",
"1  c #1C2534",
"2  c #262729",
"3  c #372B24",
"4  c #252C3B",
"5  c #282A37",
"6  c #28323B",
"7  c #33343B",
"8  c #38393B",
"9  c #372E2F",
"0  c #1B241F",
"q  c #4C340F",
"w  c #463928",
"e  c #4A3A33",
"r  c #594938",
"t  c #524931",
"y  c #6A5637",
"u  c #705924",
"i  c #2D3344",
"p  c #293648",
"a  c #373A46",
"s  c #302E47",
"d  c #1F2E41",
"f  c #403F46",
"g  c #3E424A",
"h  c #3B4756",
"j  c #474848",
"k  c #464B57",
"l  c #4B5159",
"z  c #575758",
"x  c #534F4A",
"c  c #665A46",
"v  c #6D594F",
"b  c #5D615B",
"n  c #716851",
"m  c #495866",
"M  c #565B66",
"N  c #48556A",
"B  c #5C626A",
"V  c #596676",
"C  c #686967",
"Z  c #777569",
"A  c #656A76",
"S  c #76767A",
"D  c #6E7075",
"F  c #625A71",
"G  c #85693A",
"H  c #897758",
"J  c #987955",
"K  c #89704D",
"L  c #867B67",
"P  c #967867",
"I  c #8E746C",
"U  c #A5796F",
"Y  c #93695D",
"T  c #D7A13D",
"R  c #DAA23D",
"E  c #9A8753",
"W  c #AC9057",
"Q  c #978A76",
"!  c #90866D",
"~  c #A58768",
"^  c #B58C65",
"/  c #B49B69",
"(  c #A9877A",
")  c #B09475",
"_  c #BBA96A",
"`  c #BAA876",
"'  c #BAB679",
"]  c #B8B06A",
"[  c #D19C44",
"{  c #D8A64A",
"}  c #C9A85B",
"|  c #DBAC53",
" . c #DDAD5B",
".. c #D7A657",
"X. c #DDB45C",
"o. c #DAB658",
"O. c #D4A849",
"+. c #E3AA49",
"@. c #E6B84C",
"#. c #E2AD52",
"$. c #E4AE58",
"%. c #E4B354",
"&. c #E3B45C",
"*. c #E9B65D",
"=. c #E4BA5C",
"-. c #EBBA5C",
";. c #E9B955",
":. c #F1BB56",
">. c #F0BD4E",
",. c #C39565",
"<. c #D8AD66",
"1. c #CBB669",
"2. c #DDB464",
"3. c #DDBA63",
"4. c #DDBB6C",
"5. c #D6B669",
"6. c #C5AC76",
"7. c #C5B37B",
"8. c #CBB47C",
"9. c #C8B677",
"0. c #D6B976",
"q. c #CDAA6F",
"w. c #E2AC63",
"e. c #E4B564",
"r. c #E4BB63",
"t. c #EBBC64",
"y. c #E5B56B",
"u. c #E4BC6B",
"i. c #EBBC6B",
"p. c #EAB665",
"a. c #F1BD66",
"s. c #E7BC73",
"d. c #F1BC72",
"f. c #DCC25E",
"g. c #E5C35E",
"h. c #DCC369",
"j. c #DBC579",
"k. c #C8C379",
"l. c #E4C363",
"z. c #ECC164",
"x. c #E5C26B",
"c. c #EBC36B",
"v. c #E9CA6A",
"b. c #F3C265",
"n. c #F2C36C",
"m. c #F7C76A",
"M. c #EBC373",
"N. c #EDCA74",
"B. c #E7C678",
"V. c #F2C373",
"C. c #F3CA73",
"Z. c #F6CA79",
"A. c #F5D27B",
"S. c #ECD273",
"D. c #687688",
"F. c #747B86",
"G. c #7B7A99",
"H. c #7E7CA1",
"J. c #798494",
"K. c #908F8F",
"L. c #B98B85",
"P. c #BA9687",
"I. c #B0998B",
"U. c #BDB797",
"Y. c #B4AB8D",
"T. c #878AA4",
"R. c #93ABB8",
"E. c #97B1B9",
"W. c #B1B5B2",
"Q. c #B99EA3",
"!. c #C59789",
"~. c #C89B95",
"^. c #C6AA86",
"/. c #CDBB83",
"(. c #C7B886",
"). c #D2BC84",
"_. c #D6BA87",
"`. c #C9A496",
"'. c #C8BA96",
"]. c #D5BD97",
"[. c #D5AB94",
"{. c #CCB9AA",
"}. c #E7B4A8",
"|. c #DFB28D",
" X c #B6C2B6",
".X c #CCC488",
"XX c #D4C285",
"oX c #D4C28C",
"OX c #DBC589",
"+X c #CDC297",
"@X c #DCCB9C",
"#X c #D7C695",
"$X c #D7D399",
"%X c #E3C483",
"&X c #EBCC83",
"*X c #E8C989",
"=X c #F5CB87",
"-X c #EAD288",
";X c #F8D589",
":X c #E4CA97",
">X c #E9D499",
",X c #F6D797",
"<X c #F5CD95",
"1X c #C8C5A9",
"2X c #D7C9A8",
"3X c #DBD3A5",
"4X c #C8C9B5",
"5X c #D9CCB8",
"6X c #DAD6B9",
"7X c #CCD4BB",
"8X c #E2CDA7",
"9X c #E7D6A8",
"0X c #F5DAA6",
"qX c #E2CEB3",
"wX c #E6D7B7",
"eX c #F5D8B6",
"rX c #EBE1B6",
"tX c #F6E8B9",
"yX c #F2E2AB",
"uX c #99B2C4",
"iX c #A3BDCA",
"pX c #A5BDC5",
"aX c #B1BDC5",
"sX c #A5C1CB",
"dX c #ABC4CC",
"fX c #ABCACD",
"gX c #A7C4C6",
"hX c #B4C5CA",
"jX c #ACC5D1",
"kX c #ADCAD3",
"lX c #ADCBDA",
"zX c #B3C6D3",
"xX c #B3CBD5",
"cX c #B3CDDA",
"vX c #BACCDA",
"bX c #BACAD5",
"nX c #B5D1DD",
"mX c #BBD2DD",
"MX c #B7D3D7",
"NX c #AED1D5",
"BX c #B5CCE1",
"VX c #BBD5E1",
"CX c #B7D4E2",
"ZX c #ADD1E0",
"AX c #C5CAC5",
"SX c #D8D8C4",
"DX c #C5CDD7",
"FX c #C6D4DA",
"GX c #CDD5C7",
"HX c #E7D9C6",
"JX c #EBDCD1",
"KX c #E7E3C7",
"LX c #F5EAD0",
"PX c #C4D6E4",
"IX c #DEE3C3",
/* pixels */
"4X7XIX4XhX{.{.#XS.v.l.p.y.y.y.t.i. .{ @.>.>.:.p.a.-.;.@.@.;.-.*.-.-.;.;.t.-.g.:.-.;.-.-.%.%.;.b.-.&.r.c.2.B.<X).+X2X7X7XGXGXGXGX",
" X6X7X X{.4X2X#XS.h.g.r.y.y.r.=.y. .{ @.>.>.-.a.p.r.;.@.@.;.;.*.-.;.;.-.-.z.a.t.b.b.z.;.| | | &.-.&.t.t.2.M.*X).+X6X6X7XGXGXGXSX",
"1X7X1X X{.SX2XOXj.g.=.e.4.y.&.&.y.e.&.:.:.:.*.p.r.e.o.@.%.;.*.*.*.;.*.=.=.-.-.z.-.-.=.*.;.%.*.z.r.r.t.u.2.s.&XXXoXwX6XIXSXIX7XSX",
"7X6X1X+XSXHX8XXXh.f.o.&.y.y.e.=.<.e.*.:.-.;.r.y.i.t.=.=.;.-.p.p.p.-.l.-.-.=.t.b.C.n.c.z.r.o.o.X.r.r.i.t.2.u.B._.$X3X6X6XIXKXIX4X",
"3X1X{.1XKXwX:XOXh.%.o.&.y.s.y.r.w.y.p.n.b.a.d.n.i.d.a.z.b.b.d.i.t.t.b.a.z.t.t.c.C.m.V.C.c.2.X.3.r.t.t.p.3.4.j.OX#X9XwXwXIXIX6X1X",
"1X.X'.2XHXqXoXj.X.o.X.2.y.s.t.t.d.d.V.m.m.m.n.d.a.a.:.a.t.a.d.a.i.a.t.t.t.t.t.t.z.c.n.C.C.c.c.M.r.u.c.t.e.e.s.%XXX$XrXrX6X2X2X+X",
".X'.U.2XwX8X).0.X.o.e.p.y.i.u.l.p.a.a.a.t.*.*.&.*.#.#.+.%.%.*.p.&.$.$.*.*.;.*.&.c.p.i.u.e.X. . .c.c.c.u.t.u.4.0.0.#XyXrX2X'.2X3X",
".X+X+X2X9X@X0.u.3.=.p.p.y.u.u.t.[ [ [ { { { { { { T R { { { { [ { { { #.#.%.#.| O.[ [ [ O.O.O...u.c.r.l.c.u.u.s.B.XX9X0X@X+X3X9X",
"(.'.].2X:XOXB.u.r.-.p.d.<.u.r.O.[ a.+.#.#.#.T { R R +.R R { { O.{ +.+.$.#.#.#.#.+.#.;.*.*.*.*.*.o.u.c.c.p.r.u.s.0.0.>XyX$XoX#X#X",
"8.].].8X8X_.j.u.r.t.p.<.p.e.X.o.:.:.*.a...{ O.{ R R +.+.{ [ [ [ [ [ [ [ #.#.{ T #.#.-.a.a.-.t.e.3.3.r.r.t.c.u.2.s.0.:X0X:X/.).).",
"(..X+X8X:X0.h.l.t.i.y...d.X.o.r.:.+.$.d.y.i.&.;.>.>.+.:.#.*.t.n.d.d.p.$.#.#.*.-.;.:.:.b.m.t.p.&.u.4.2.&.r.t.r.u.B.0.XX,X:X/.7./.",
"7.].2XwX@X0.h.l.c.p.w.$.i.X.X.x.-.a.i.=X=X%XZ.v.m.:.m.m.Z.d.u.c.d.d.d.d.n.n.m.m.-.-.t.a.b.a.*.&.3.u.r.r.%.&.e.M.%X0.0.0X,X_.6.8.",
"(.+X2XwX:X0.o.l.d.w.w.d.X.2.r.x.a.Z.=X<XW G 0.N.a.m.V.Z.=X=XN.&XZ.B.V.M.M.M.c.v.z.t.z.z.n.c.b.t.3.u.x.t.&.| =.t.B.5.j.>XyXOX9.8.",
"(.$XqXeX#X1.f.g.w...w.d.| r.x.x.Z.M.<X^.= O _ -Xm.Z.=X<X<X<X>X>X<X,X,X,X=XN.N.A.x.z.c.c.n.C.Z.C.4.3.r.r.r.*.&.3.s.0.0.-XyX:X8.8.",
"(.8XHXwXoX1.f.=.$.w.y.d.&.3.l.N.;X*X:Xy O = (.,X=X<X=X0.^ E K u G E } B.;X-XS.h.x.v.N.N.A.A.A.;XB.3.X.=.t.-.&.2.4.0.1.:XtX>X/.8.",
"7.9XHXwXXX1.f.o. .d.d.2.V.e.t.A.=X,XP.O @ E OX0.<Xq.J q O @ O O = O O q W :X-Xh.x.N.S.A.A.A.=XA.c.u.3.e.r.*.e.2.3.5.5.-XtXyXOX9.",
"7.2XHXqX0.1.g.v.u.y.e.i.y.i.r.v.B.].e % e _.Z.B.] @ . o * * = * * % @ . @ ~ XXj.A.M.N.Z.Z.N.v.v.c.u.u.y.p.t.y.y.l.3.1.j.tXeXOXj.",
"(.3XJXqX0.1.h.l.2.y.i.p.y.s.v.A.,XK $ $ ~ *X=XB.t   0 & , o O $   & $ ,   . 8.-XN.v.M.V.Z.N.c.v.h.o.s.u.y.i.y.y.o.o.f.-XtXeX).q.",
".X3XHXqXXX5.h.o.y.y.r.i.d.d.B.B.8.r 5 7 ) <X;XW . 3 % # # $ $ O .   o o * . u %XS.M.c.V.M.B.c.x.o.o.V.d.i.d.y.s.h.f.1.OXeXeX).1.",
"XX3XHXqXoXj.S.l.u.e.p.V.B.s.B.*X` @ f 8 I.:Xs.u . 9 o < % * O $ . . $ o @ - O } A.v.i.a.V.c.c.v.=.e.M.s.i.d.y.s.v.h.h.OXeXwXXX1.",
".X$XHXqX#XOXS.N.2.p.t.t.B.%X-X>Xt 2 6 x - E 9.= O $ % @ 3 , . * * @   $ + 3 + W &Xc.n.n.n.n.c.n.r.o.p.y.p.i.2.2.x.h.j.:XwXqX).9.",
".X3XHX5X'.OX-XN.o.r.r.2.B.0X#XQ @ t 5 j   / :X+ + 9 % & . . +   . O $ * $ 3 + W A.n.t.a.n.c.n.c.z.t.u.y.y.u.<.2.S.j.k.#XqX8XXX0.",
".X3XHXSX{.oX-XA.3.e.r.u.-X8X` c x   8 . J yX6.+ $ $ . n L Q I.Y v e $ O $ w + ^ M.t.;.-.p.p.e.r.z.-.c.p.p.s.2.4.&Xj.XX#X8X3XXX).",
".X$XHX5X2X].-XA.M.x.B.B.OXY.! Z E.W.W.! oX,X_.= + O Q {.Y.) I.P.( U n x + = + W 4.X.| #.%. . .o.%.o.i.i.y.i.4.j.j.XX+X3XeX9X(._ ",
"' $XIXKX{.(.<X&XB.B.%X:X.Xn L b g K.! ^.:X,X<Xq + Y `.{.~ J !.!.~ L Q.Q.v + q q.2.&. .| | ..| | %.z.i.i.2. .h.j.-X#X@XwXwX3X/.).",
"' $X6XSX1X`.XX-X-X-X_.Y.H H Z m X   @ (.,XB.%XW = U ~.~.^ J !.P.~ ( Q.{.U + G <XB.c.z.t.i.t.z.b.;.r. .<.<.5.B.j.OX+X{.qX9X#X7.9.",
"7.(.3X5X4X'.k.-X>XyX9Xc t Z k # 5 * u =XV.V.,X*XK !.}.}.U ^ }.!.U ~ P.`.( = U =XZ.C.Z.Z.Z.A.C.C.z.r. .2.0.s.S.-X.X+X1X5X9X.X6._ ",
"7.7.$X5XwX2X' $XyX3XI + b D 6 ; a * K =XZ.Z.A.h.,.Y }.~.J [.}.`.^ ( `.{.!./ %X;Xc.V.d.Z.Z.V.n.v.z.r.y.V.*XB.S.j.k.+X5XHX3X/.6.9.",
"8.(.@X8XwX2X' ' KXI.9 f S C ; 1 i w q.<XZ.*.S.;X,.,.}.~.Y !.U L.J U !.!./ <X&Xx.x.x.M.d.B.v.v.g.g.z.x.=X<XB.B.j.(.1XJXHX@X7.7._.",
"XX/.].8XqX1X' ' U.L F T.K.5 ; p h L <X$.a.a.v.f.,.,.}.~.U U L.L.Y ( [.[.8.%X;Xv.v.M.&X%X&XN.f.h.o.x.M.B.&XOXj.k.(.SXJXJX+X1.9.*X",
"_._._.2X5X+X+X' ! C T.H.N ; h N X K.,XZ.Z.m.g.S.Z.,.~.~.Y U ~.L.U !.^.[.%Xh.S.v.v.N.=X*X*XM.h.g.g.c.u.s.*X*Xj.1.(.SXJXHX.X_ 8.*X",
"8.q.` '.{.2X3X XC S H.D.g 1 1 d X 4X0X=X=X;XS.A.=X^ !.L.!.`.L.L.L.L.!.6.%X;XS.v.z.s.s.%XB.M.l.l.l.M.u.0.B.-Xj.] '.5XJX5X8.6.8.>X",
"8.).9.(.2X6XSX4Xz J.D.B < 4 p > j K.Q ^.~ J .X9X^.G !.~.Y.}.L.~.!.U P.].<XB.A.A.v.t.A.A.t.M.r.o.N.N.u.y.M.4.9.(.4XJXHX].6./ ).0X",
"OX(._ 7.oX6XJXW.S D.C 2 < < p k x Z t r c O w ) P y K ) ~.( Y L.~.[.^.,.<X,XA.l.M.3.c.c.x.C.l.x.4.u.2. .} } ' 3XHXJXqX(.8._.$X9X",
"0X].6..X.XrXLXK.S F a ; < < a a e z t   3 t @ @ r y w y I I U U L.L K J 8.%XB.;Xs.2.M.Z.;XA.=.o.} } } } } 6.].rXKXwX#X(.8.#X9X@X",
"8X:X8..X8.3XKXK.$ f ; : : 4 7 < l & f 8   * - 3 3 x * O + 3 f e e @ w E / _ 8.%X&X&X&X&X;XM.3.x.2.5.<.q._.#XqXKXrX$X+X' (.>X9XXX",
"|.:X_.7.9..XrXU.. , > 1 s s 5 f M k % 2 j z j x r x x 3 * * * w w 3 Z / ~ E / / 6.*X*X-X-Xj.k.S.B.-X&Xk.'.2XHXKX9X.Xk.' ).9X>X9.",
"_.0X|.(.6..X>XtXQ   s > 4 s k l l 5 : : 2 0 8 z j 8 j x f j x z r Z Q ! n y u y G / (.XXXXj.j.S.*X*X.X' '.HXLXeX$X' ] k.3X9X%X} ",
"0._.*X_.7.7..XyXwX@ $ > > > f 5 # # a < 1 :   2 g 8 j j l C C z l ! K.Q Q c t y n H H E W ] -X-XOX6.` U.SXJXLX8Xj.] ' $XyX@X0.<.",
"0.q.<X:X_.7.] #XrXL o f > $ X # ; # ; 4 < < # < X 5 j z z z l j 8 b Z Z Z n S n n n y n H ` >X$X9.` U.6XJXKXwX+X6.7..X9X9X8.} c.",
"u.2._.:X|.6.6.].>X3X3   7 2 # $ X # k N $ k 5 : 2 k j 5 2 & X X o o 0 0 0 w j C n b c L t E 3X' ` (.6XSXIX6X#X9.).(.#X9XOX1.h.l.",
"r.2.y._.:X:X).6..X$XrXQ . X , $ s a D A # M k & 7 a 7 , % & & 2 8 g b b b C b b b b b c w c ' Y.'.5X6X7XIX3Xk.6.` :XwX#X0.h.g.z.",
"o.=.4.0._.0X#X6.1.$XLXLX{.z o > F k D.T.6 s M : 5 2 2 $ o % 2 6 6 b b C b x b b z x b z x n I.2X2XHXSX6XrX.X] _ ^.0X9X8.5.h.o.g.",
"@.=.y.q.q.:X:X_.9.k.yXtXLX{.9 $ F p k T.A & M i 7 5 j 5 < j a e 8 g g b g 6 l D A B b z l t Z 1X6X5X6XIXrX' ] 9.:X8X_.8.h.g.=.g.",
"%.%.r.4.y.|.OX0X*X#X>X@XqX5XI o V h d G.G.: a k a 4 k l f k f f 8 8 7 z B j B A V B b b l t b 7XHXwXKXwX'./.#XOX>X8.q.s.r.z.z.o.",
"=.{ | =.y.0.0.:XtX>X(.oXrXqXI.* F N 1 D.T.a ; M k > s l k f 7 f 8 8 9 j x l b D D A l m h 1 9 C SXKXtX+X` :XtX:X/.1.4.t.&.-.c.o.",
" .O.O.o.3.2.q._.9X#X#X(.' ].'.t V N p D.H.D.# h k 1 4 k f a s f 6 6 8 8 7 g b S A V M A B 5 8 b Y.6X0X(.(.9XwX#X6.1.g.@.|  .X.o.",
"X.&.%.| o.e.0.q.).:X,X/./.(.Y.C M D.D.p J.J.; 1 s 4 1 4 4 s a 5 8 5 8 7 8 l l B B D J.A k X k C n U./.8.9X0X).7.j.v.o.{ { O.[ o.",
"| =.%.o.| o.r.3.4.} B.j./.oX'.! B D.D.m V J.N ; N g p i 4 4 7 5 5 5 i a a g l M F M M F.k X a 8 t I.#XOX-Xj.5.h.l.o.{ { $.&.| T ",
" .=.&.| $.p.t.=.r.3.4.q.q.6.` H C D.h m m J.h ; h p 4 : : : 1 : 1 i a d a F D.C l l M M a : a 8 j Q oX9.1.o.o.o.z.*...$.$.$.| O.",
"$. . . .$.$.e.r.&.u.4.s.%X_.P.n J.J.V B V D.N h h i d 4 1 1 i 1 1 5 i a a l V D.s a l k $ # a z v I ].oXq.u.l.z.e.w.<.......O.| ",
"p.e.$.&.p.p.t.p.p.c.2.0.|.:X_.n V J.J.D.J.V V h g i 6 i 6 g h h k a h V k p h A B 6 5 4 ; 5 6 z c y ^.*X5.4.o.o.e.w.w.w...|  .&.",
"-.&.&.*.*.&.&.*.*.t.l.j.<.%X8.y S D.V D.V V N a : ; # # # ; 1 4 d 1 p h m m A F.M ; X X X # X < w - E k.h.h.f.o.o.3.3.X. .o.| o.",
"&.o.r.r.=.e.e.=.r.3.v.h.} 8./ y F.V D.D.V V D.V N h h h h h m l N m m m m M V A l p 6 1 ; : < 8 r q K ` 1.k.k.h.0.1.q.9.0.1.1.1.",
"} o.4.5.5.4.4.4.B.1.} W W 6.J n l V DXvXPXzXvXvXkXvXVXPXVXmXvXzXvXzXvXmXhXiXbXFXvXdXdXpXhXbXhXaXaXW.W.AX4X X1X1X1X1X{.1X1X4X1X X",
"E W _ / / ` 6._ _ W E W (.' t t > h aXPXaXPXvXPXVXvXvXmXMXmXPXPXPXvXcXPXPXPXPXxXbXbXPXDXFXbXvXvXcXPXcXzX X X XhX XhXpXW.aX X X X",
"'.U.Y.Q.Y.`.Y.Y.Y.Y.U.1X4XW.K.S F.J.pXzXbXzXzXzXaXzXzXlXxXxXxXxXjXjXkXxXcXvXxXzXxXzXxXxXhXzXhXdXlXlXlXkXfXgXE.pXdXdXgXdXdXdXgXgX",
"AXhXAXDXDXDXDXDXGXDXAXAXFXFXbXDXPXjXvXzXaXdXzXxXlXjXjXkXjXjXkXkXkXkXkXcXcXvXxXxXMXvXbXxXxXxXbXxXlXlXlXlXkXxXfXjXsXpXsXdXdXfXfXfX",
"aXaXaXaXzXbXvXvXfXbXhXhXzXvXVXPXPXaXdXpXjXzXzXxXjXjXsXsXiXjXjXkXsXsXiXiXsXsXsXsXdXsXdXpXgXpXdXdXiXiXiXiXpXiXiXiXiXiXiXiXsXsXiXpX",
"dXjXjXjXzXvXzXlXkXMXNXfXnXcXlXxXvXdXzXxXvXcXxXdXxXlXkXkXkXlXlXcXcXkXkXkXlXxXlXxXdXjXdXkXzXfXfXzXlXjXzXiXjXiXiXjXsXjXsXsXsXsXsXuX",
"dXgXfXxXlXBXlXxXNXNXfXfXNXMXfXxXNXMXNXMXxXMXMXnXxXcXnXnXnXcXnXnXVXCXnXVXVXVXVXVXnXnXmXmXVXmXmXmXvXvXvXmXBXBXBXcXzXzXxXNXxXxXxXxX",
"NXxXxXMXBXlXlXkXgXfXgX XgXE.E.gXE.NXgXdXsXsXkXmXcXlXnXnXCXCXCXnXnXnXnXnXVXVXVXVXnXVXmXPXPXmXmXMXmXMXvXVXCXBXcXBXcXMXMXNXxXxXxXxX",
"VXBXBXCXBXBXlXlXfXfXgXgXdXE.pXfXsXVXfXkXkXfXsXkXnXcXcXnXnXnXCXCXnXCXCXCXVXnXVXnXVXmXmXmXMXMXMXMXMXMXMXnXZXCXCXZXCXnXNXNXfXfXfXfX",
"R.R.R.uXuXuXuXuXuXE.R.R.R.R.E.mXgXnXpXfXkXnXMXnXnXnXcXlXlXcXcXnXnXnXnXnXnXnXnXnXkXxXjXdXdXsXfXfXNXfXfXkXlXlXZXZXZXNXNXfXfXfXfXNX"
};
