/* XPM */
static char *_a1608f61e0642c9830eb6e0bed14e3bPiPerAU8EsNKbDBX[] = {
/* columns rows colors chars-per-pixel */
"64 64 248 2 ",
"   c None",
".  c #010104",
"X  c #03030B",
"o  c #09070D",
"O  c #0A0A0E",
"+  c #07090E",
"@  c #040512",
"#  c #050A13",
"$  c #0B0C14",
"%  c #0B0D19",
"&  c #060A17",
"*  c #120F15",
"=  c #0C121B",
"-  c #0A1017",
";  c #121115",
":  c #12131C",
">  c #1B1618",
",  c #251B1A",
"<  c #381310",
"1  c #141620",
"2  c #151924",
"3  c #1B1B24",
"4  c #191A26",
"5  c #0F1821",
"6  c #231E23",
"7  c #241D27",
"8  c #1C232C",
"9  c #192127",
"0  c #1D2630",
"q  c #2D2425",
"w  c #23242C",
"e  c #2C262B",
"r  c #332D2B",
"t  c #3B2D2C",
"y  c #372628",
"u  c #2B2B33",
"i  c #262833",
"p  c #3B2F33",
"a  c #293038",
"s  c #3C3232",
"d  c #343438",
"f  c #3D302F",
"g  c #3C241D",
"h  c #510F0D",
"j  c #4B292A",
"k  c #46352F",
"l  c #443433",
"z  c #4A3634",
"x  c #4C3B36",
"c  c #4C3B3A",
"v  c #473838",
"b  c #523D3B",
"n  c #593834",
"m  c #55302F",
"M  c #653937",
"N  c #723530",
"B  c #5B1627",
"V  c #55423D",
"C  c #5A453C",
"Z  c #4E413C",
"A  c #66443D",
"S  c #3C3C41",
"D  c #4F3F41",
"F  c #543F40",
"G  c #6E3644",
"H  c #4D4345",
"J  c #554341",
"K  c #5C4542",
"L  c #5C4944",
"P  c #5C4C4C",
"I  c #554848",
"U  c #5A5450",
"Y  c #634A45",
"T  c #634A4A",
"R  c #6B4C4B",
"E  c #664845",
"W  c #754D4A",
"Q  c #6B514D",
"!  c #67524C",
"~  c #73534C",
"^  c #7A554D",
"/  c #78584E",
"(  c #6A5753",
")  c #745553",
"_  c #795653",
"`  c #7B5B54",
"'  c #745D5A",
"]  c #7B5B59",
"[  c #755B55",
"{  c #7D625B",
"}  c #74605A",
"|  c #6D625D",
" . c #786765",
".. c #7D6F72",
"X. c #871914",
"o. c #823346",
"O. c #87574D",
"+. c #835D5C",
"@. c #895C57",
"#. c #925457",
"$. c #90514A",
"%. c #A74A48",
"&. c #84625D",
"*. c #8B645B",
"=. c #89655A",
"-. c #95675C",
";. c #936953",
":. c #9A5A67",
">. c #8A6461",
",. c #8B6B63",
"<. c #856765",
"1. c #916663",
"2. c #926B63",
"3. c #9A6D63",
"4. c #9A6B6A",
"5. c #877266",
"6. c #9C7264",
"7. c #95736C",
"8. c #9B746B",
"9. c #9E796C",
"0. c #947166",
"q. c #997973",
"w. c #8D7970",
"e. c #A46B65",
"r. c #A17366",
"t. c #A37C6A",
"y. c #A87869",
"u. c #B27E6C",
"i. c #A47C74",
"p. c #AB7D74",
"a. c #A77A76",
"s. c #B87777",
"d. c #9A847B",
"f. c #B4826D",
"g. c #B7836C",
"h. c #AC8172",
"j. c #AC827A",
"k. c #A4867A",
"l. c #B48373",
"z. c #BB8571",
"x. c #B68975",
"c. c #BC8C7C",
"v. c #B88879",
"b. c #BC927C",
"n. c #AC806A",
"m. c #C38B75",
"M. c #C68B78",
"N. c #C8917C",
"B. c #B57681",
"V. c #A88C83",
"C. c #B58B84",
"Z. c #BA8C83",
"A. c #BB8A87",
"S. c #AA9388",
"D. c #BC9385",
"F. c #B89688",
"G. c #B99891",
"H. c #BCA8A0",
"J. c #BDA19B",
"K. c #C38C85",
"L. c #C49484",
"P. c #CA9584",
"I. c #C3958A",
"U. c #C49B8B",
"Y. c #CB9C8B",
"T. c #C89986",
"R. c #D29A84",
"E. c #D39E8A",
"W. c #CA9C93",
"Q. c #C59B92",
"!. c #D39E94",
"~. c #D99F92",
"^. c #C9A18D",
"/. c #D2A48D",
"(. c #DCA58C",
"). c #CDA393",
"_. c #CAA698",
"`. c #D4A492",
"'. c #DEA592",
"]. c #D6AA95",
"[. c #DCAA94",
"{. c #D3A59A",
"}. c #D5AB9A",
"|. c #DBAC9C",
" X c #D9A69C",
".X c #DDB29D",
"XX c #D6B09A",
"oX c #E4AE9A",
"OX c #E3A996",
"+X c #E3B39C",
"@X c #E7B59B",
"#X c #E09FA4",
"$X c #D5ACA1",
"%X c #DBACA2",
"&X c #DBABAA",
"*X c #CDB4AA",
"=X c #DCB3A4",
"-X c #DEBBA5",
";X c #DDBAAB",
":X c #DAB3AA",
">X c #D4B4AA",
",X c #E4A7A4",
"<X c #E3B4A4",
"1X c #E5BBA4",
"2X c #E4BBAC",
"3X c #EBBDAB",
"4X c #E8B8A8",
"5X c #F1BEA8",
"6X c #EBBEB3",
"7X c #E9BCB6",
"8X c #F2ABB4",
"9X c #E39D8F",
"0X c #DAC3B9",
"qX c #ECC4AC",
"wX c #E9C1A7",
"eX c #F2C4A6",
"rX c #F3C3AC",
"tX c #F5CAAB",
"yX c #ECC3B5",
"uX c #EDC8B5",
"iX c #ECC4BA",
"pX c #EBC8BA",
"aX c #F2C5B3",
"sX c #F3CBB4",
"dX c #F2C6BB",
"fX c #F4CCBB",
"gX c #F8CCBB",
"hX c #F6D3BC",
"jX c #F9D1B9",
"kX c #EDCCC2",
"lX c #F4CCC3",
"zX c #F4C7C2",
"xX c #F6D4C3",
"cX c #F8D5C3",
"vX c #F8DAC6",
"bX c #F6D4CB",
"nX c #F9D6CB",
"mX c #F9DBCC",
"MX c #F6D9C7",
"NX c #F9DDD3",
"BX c #F7DBD1",
"VX c #EFD3CA",
"CX c #F9E0CD",
"ZX c #FAE2D5",
"AX c #FBE3DA",
"SX c #FBE9DE",
"DX c #FBEAE2",
"FX c #FCE9E4",
/* pixels */
"                                                                                                                                ",
"                                                                  $ % > - - =                                                   ",
"                                                            X % + X % $ # @ # 5 1 :                                             ",
"                                      $ 1 1 @ + $ ; $ - $ X & + X @ @ X X X @ @ : 1 ; ;                                         ",
"                                    O % $ @ X X . X X & # X X X % @ . . . X X . X @ @ @ + $                                     ",
"                                % $ O X . @ . X X X . . . . . & % . X @ . X . X . X @ @ X + ; ;                                 ",
"                              % % $ $ @ @ X X X . . X X X . X X X . X . . X X X . X X X $ . @ $                                 ",
"                          o = $ @ @ & @ % @ @ % $ X X X + . . @ + @ X . @ X . . . . X . X X . @ %                               ",
"                          $ % 1 2 = : 5 1 8 % 1 9 : O + o $ $ $ + @ X ; * . . . . X X X X @ . X $ ;                             ",
"                        $ @ # 4 9 9 8 2 9 8 9 8 u u u i u u u w 7 2 = i 3 . X . @ . X . . @ @ . X $                             ",
"                      ; : & = 0 a 8 8 8 a a w i d H } ' T I P P I Z r 8 4 4 % o . . X X . X @ . X & $                           ",
"                      : : 1 5 0 a 8 9 a i # i ( d.U.[. XD.c.z.m.x.x.9.} H i # $ O o X @ @ . @ X X @ %                           ",
"                      1 : > 3 4 0 9 X . C d.XX1XqXeXeXeX5X@XoXOX[.(.(.Y.j.,.P q . . . . X . @ . @ @ = :                         ",
"                    : 1 % : = > # , { F.wXsXsXtXtXeXeXeX5X5X@X@X@X(.(.(.R.M.j.w.+.Y t > . X @ @ @ % 1 4                         ",
"                    $ 4 9 : % . s b.wXtXqXqXtXsXjXjXsXsXsXrXrX@X@X@X[.(.R.m.x.l.l.i.<.P 6 % & & = 1 4 1                         ",
"                    : 4 ; $ > . w.wXeXwXtXsXhXvXvXvXvXcXfXgXrX3X1X+XoX'.R.m.g.l.u.u.h.,.D 3 : % = 1 1 %                         ",
"                    # X . O . t F.tXtXtXtXhXCXCXZXZXCXCXvXhXgX6X4X@XOXE.N.m.z.c.f.n.f.6.( e ; 1 & & $ @                         ",
"                    . . + + # H ^.sXtXsXhXCXCXCXZXZXCXCXvXvXfXrX5X@X(.'.R.m.m.z.l.g.f.9.( s 3 = @ X X @ #                       ",
"                    . . # ; 3 | *XsXtXsXhXvXhXhXvXmXvXvXmXvXhXaX5X@XOX(.R.M.m.m.g.g.f.9.] c 7 4 $ X . X +                       ",
"                    . . : > d d.-XsXtXsXtXhXhXvXvXcXhXxXmXvXxXfXrX5XoX(.R.N.z.z.g.g.x.h.{ b e > + @ . + o                       ",
"                    . X ; a U k.-XfXjXsXhXhXCXCXnXmXxXhXcXcXxXlXgX6X<XOXR.N.z.f.g.g.f.n.5.Y e 3 > @ + . +                       ",
"                    O + 9 S ..F.wXjXfXfXvXvXCXZXNXNXnXxXxXcXmXnXcXaX<X<X}./.Y.M.z.f.n.9.6.~ s a 7 = . . .                       ",
"                    O ; d U d._.uXjXhXmXmXBXCXSXFXFXNXNXmXmXNXAXNXVXiX:X>X_.G.F.b.n.t.n.t.=.L s 7 : + . O                       ",
"                      w I | k.qXjXjXMXpX*XV.V.H.0XbXbXBXNXBXBXbXVX7XS.<.( ( ' ' 5.9.6.6.t.0./ c e 6 * + ;                       ",
"                      d U S.wXhXjXqXF.S.*XH.V.w.S.G.J.;XnXlXzX:X_.q.E ) V.S.V.q.<.Q &.6.6.r.-.) b q > + $                       ",
"                      Z d.wXhXhXuX}.;XBXNXNXkX;X*X$XJ.;XnXzX2X%XQ.G._.pXkX2X XI.h.=.&.7.6.3.-.*.R k q * .                       ",
"                      ( _.sXhXhXuXpXmXmXmXcXrX XR.].=XpXnXkX:X|.).=XaXsXaX<XP.p.3.-.=.=.0.6.6.*.~ Z q ; O                       ",
"                      5.-XhXvXhXuXgXhXgXhXuX}.v.u.z.`.fXmXbX4X`.E..X XZ.a.7._ W R / =.=.9.y.3.*./ C r ,                         ",
"                      d.wXhXhXhXsX3X(.b.t.~ y g A ;.P.jXZXmX4XN.L./.@.<.p . + > , j E -.y.-.-.*.^ C v q                         ",
"                      S.sXjXhXhXsXR.;.N  ...( <.>.1..XhXZXvXOXm.P.Y.C.W.G.V.>.R j n _ 3.u.u.r.-./ L s e                         ",
"                      S.hXhXCXCXvX1X/.|.yX:XQ.a.e.%XlXhXvXjXOXm.K.+X%XI.W.I.p.3.6.t.h.l.g.f.6.=.~ C s , 3 H                     ",
"                      S.hXhXCXCXvXhXvXmXuX-X$X{.6XnXmXvXvXfXOXz.v.+XaXaXyXyX4X=X.X XY.L.N.h.0.=.~ C t Z ' { Q                   ",
"                  *XF.F.jXhXvXmXmXmXCXAXZXNXmXbXNXZXNXmXmXjXOXu.l. XaXlXdXlXfXdX6X<X~.K.K.p.-.` R V n &.R h W z                 ",
"                G.P.<X1XqXhXCXmXZXZXZXAXNXNXmXNXZXAXZXnXnXgX'.y.y.T.dXzXdXzXlXzX7X&X!.K.s.y.=./ Y b K R W G M W                 ",
"                m.X.m.+X1XfXmXNXSXSXSXNXZXNXNXNXSXAXnXnXnXlX~.e.$.l.yXxXxXdXzXzX7X$XW.A.l.y.@.~ K x z _ q.+.#.+.                ",
"                s.%.pXuX+XsXvXZXDXDXDXSXAXNXNXNXmXlXcXmXSXNX Xj.h.-.).bXBXnXzXiX7X$XW.C.p.4.] Q Y x g ~ q.>.e.]                 ",
"                M.M.cXcX.XtXvXZXSXDXSXDXFXFXNXnX6XlXAXmXNXzX!.s.Q.r.p.uXBXnXlXiX2X$XI.C.a.1.] E C b < A 7.1.4.)                 ",
"                P.9XvX5XoXuXhXBXZXSXFXFXFXFXnX6X XaX<X#.l.z.$.m >.*.O.{.nXnXkX7X&XW.A.B.7.>.] T K V E E 3.1.@.                  ",
"                E.OXcXoX[.qXhXvXNXAXDXFXFXNXlX|.,X,X%.W G.#.M z j n @.T.yXbXdX<X$XW.C.a.2.>._ T J b ] ` 2.4._                   ",
"                C.OXfXoX[.qXgXhXmXNXAXAXNXnX6X XzXbX%XVXNX!.&Xp.*.1.C.`.iXlXiX&XW.K.p.7.,.@.~ L x c _ ` 2.@.T                   ",
"                   XaXoXOX4XfXvXmXNXDXAXNXlX4X3XBXZXmXnXuX!.8X~.Z.D.Y.=XdXlX7X{.W.D.i.6.0.] Y A z b ] W O.)                     ",
"                  _.rX3X[.1XfXvXNXAXNXNXNXzX7XMXBXbXMXMX2X,X!.!.W.Z.Z.{.pXpX6X$XW.C.a.8.=.` Q C x D ] >.] v                     ",
"                    3XrXoX1XsXmXNXAXNXNXNXlXxXBXBXAXxXM.A.K.#.#.p.G.D.Z.}.qXqX{.Q.C.j.q.,.[ ! V z T <.>.I                       ",
"                    0XmX|.+XsXmXBXZXNXNXBXnXnXzXnXnX6.o.#.o.B h m 1.F.F.U.1X<X{.Q.C.V.7.=.` L J v b ! k                         ",
"                    H.ZXwX].sXbXNXNXNXNXBXBXnXpX&Xe.o.:.B.s.s.:.G B 7.F.Q.}.<X}.Q.C.a.7.>.[ E V c >                             ",
"                      S.D.(.wXhXBXNXNXNXNXAXnX:Xe.s.&X8X8X#X#XB.:.@.9.D._.}.%X{.I.p.i.7.@.~ C n l                               ",
"                        r ).@XjXnXmXBXNXAXNXzXI.&XzX,XP.K.s.e.+.>.*.i.D._..X}.W.A.9.7.,.] R b D s                               ",
"                          F.1XdXlXnXmXBXNXmX2X<XgX6XK.$.h h j M E #.p.L.^.).W.Z.a.7.&.] ( K c v r                               ",
"                          V.<X1XpXxXxXbXcXyX1X2X3X[.c.-.4.i.@.W @.r.h.L.I.D.v.p.4.>._ R E b b v ,                               ",
"                          5.|..XwXuXpXiXyX=X}.].+X|. X2XVXxX%X!.E.Z.N.b.A.C.r.-.] ] R K c c c l >                               ",
"                          U ^._.|.4X1X1X<X}.}.>X1XsXxXZXnX=X;XuX4X{.Y.D.Z.j.8.` R T F F c z v v                                 ",
"                            S./.`.`.].].].].=XyXxXCXAXmXiX{.=X2X2X{.D.v.9.2.] ! T F D v D z D l                                 ",
"                            d.]./.R.Y.^.).)..XwXhXxXvXpX-X}.:X$X_.Z.9.0.&.[ ! L D c c c b v v r                                 ",
"                             .)./.).Y.Y.T.L.^.].XX;X-X/.F.^.^.G.V.q.[ ( ! C V V F J J V x v v r                                 ",
"                              S.]./.]./.].^.^.T.F.G.F.d.9.i.V.d.,.[ I Z k V L E E T J b z v s                                   ",
"                              5././.[.1X1X.X.X/.b.t.^ A [ &.] ! I v t v L Q _ ( Q R J c x l q                                   ",
"                                b.^./.@XwXqX1X1X=XT.9.^ W R R Y T E ! [ [ ` _ ! Y C c v l q                                     ",
"                                5.N.^./..X1X1X<X<X.X].W.Q.C.8.8.7.,.=.@.) ! R J c l s e 6                                       ",
"                                  w.b.b.^././.Y.P.L.P.I.I.D.j.t.,.&.^ Q K V b f l p 6 ;                                         ",
"                                    5.k.x.b.D.c.s.y.e.e.r.1.&._ R P C b v l t e 7 >                                             ",
"                                      ( =.0.9.i.y.3.;.@._ R Y b z v k t e 6 > *                                                 ",
"                                          x W O.@.^ ^ R Y C n n z j 7 7 >                                                       ",
"                                                m A n n n n m m y ,                                                             ",
"                                                                                                                                "
};
