/* XPM */
static char *_3c4ca85702b4e23ca234c59a29f4940gq93xQX4tPQeZcLC[] = {
/* columns rows colors chars-per-pixel */
"64 64 240 2 ",
"   c #020004",
".  c #0D0100",
"X  c #04040B",
"o  c #120100",
"O  c #170A07",
"+  c #1A110F",
"@  c #030416",
"#  c #171519",
"$  c #150F15",
"%  c #2A0A09",
"&  c #251A18",
"*  c #30060B",
"=  c #1E1D24",
"-  c #191926",
";  c #0B1327",
":  c #211D28",
">  c #1C2234",
",  c #1E222D",
"<  c #24232B",
"1  c #272427",
"2  c #3B2925",
"3  c #242532",
"4  c #262933",
"5  c #2B2B33",
"6  c #242B3B",
"7  c #2D2D3B",
"8  c #242539",
"9  c #332D37",
"0  c #2E313D",
"q  c #233039",
"w  c #32333D",
"e  c #383138",
"r  c #38322D",
"t  c #2F241E",
"y  c #4B0716",
"u  c #641A30",
"i  c #751D35",
"p  c #442A27",
"a  c #55373B",
"s  c #4C3231",
"d  c #6F3A39",
"f  c #43211F",
"g  c #5B423D",
"h  c #60433B",
"j  c #2B2E41",
"k  c #2D3243",
"l  c #2F3749",
"z  c #323442",
"x  c #32364A",
"c  c #353A4C",
"v  c #3B3C4C",
"b  c #383846",
"n  c #363E53",
"m  c #3A3E52",
"M  c #3D3F58",
"N  c #423B4E",
"B  c #433C53",
"V  c #463B56",
"C  c #5A3B43",
"Z  c #643947",
"A  c #77394E",
"S  c #3D424E",
"D  c #3D4255",
"F  c #3C455A",
"G  c #3C485C",
"H  c #364154",
"J  c #3F4A60",
"K  c #45444B",
"L  c #414454",
"P  c #42455C",
"I  c #43495D",
"U  c #494955",
"Y  c #554E50",
"T  c #664947",
"R  c #744A47",
"E  c #6D504A",
"W  c #7A534B",
"Q  c #785956",
"!  c #6C5256",
"~  c #78615E",
"^  c #444A62",
"/  c #484A63",
"(  c #515266",
")  c #6A5165",
"_  c #676569",
"`  c #756869",
"'  c #797578",
"]  c #726B71",
"[  c #883950",
"{  c #854455",
"}  c #865D59",
"|  c #865B56",
" . c #8A655D",
".. c #93695D",
"X. c #9A5769",
"o. c #8F4B65",
"O. c #A5566C",
"+. c #AA536D",
"@. c #896864",
"#. c #936A65",
"$. c #996A66",
"%. c #9C726B",
"&. c #95756C",
"*. c #856E76",
"=. c #877676",
"-. c #9A7A75",
";. c #946D73",
":. c #A4746C",
">. c #A47B74",
",. c #A77A76",
"<. c #B47D7C",
"1. c #A16C7E",
"2. c #A0425C",
"3. c #9E847D",
"4. c #A5837B",
"5. c #AD837C",
"6. c #A68076",
"7. c #B6877D",
"8. c #7C7B84",
"9. c #74788A",
"0. c #967B82",
"q. c #8D7286",
"w. c #A7778B",
"e. c #7A8096",
"r. c #8A8285",
"t. c #998787",
"y. c #8A8B95",
"u. c #979194",
"i. c #AC8B84",
"p. c #AA8987",
"a. c #B58A83",
"s. c #BB8B83",
"d. c #B78A87",
"f. c #AB918A",
"g. c #B4938C",
"h. c #BC928B",
"j. c #BE978C",
"k. c #A89998",
"l. c #BC9593",
"z. c #B49B94",
"x. c #BC9B94",
"c. c #B69996",
"v. c #AC8A96",
"b. c #B9A39C",
"n. c #9C9BA4",
"m. c #9E9CB1",
"M. c #A99CA4",
"N. c #B59DA6",
"B. c #A9A5A6",
"V. c #B6A7A6",
"C. c #BEB3AE",
"Z. c #B7ABB5",
"A. c #B6B4B9",
"S. c #ABAEB7",
"D. c #C38B89",
"F. c #C4948B",
"G. c #C6978A",
"H. c #C49B94",
"J. c #CB9D94",
"K. c #C69996",
"L. c #C4A29C",
"P. c #CCA39C",
"I. c #CDA293",
"U. c #D3A59D",
"Y. c #D3A497",
"T. c #CEA4A2",
"R. c #CDABA5",
"E. c #C6A8A6",
"W. c #D4ACA5",
"Q. c #DAACA4",
"!. c #D5ADA9",
"~. c #DBAEAC",
"^. c #D3A6A6",
"/. c #DBB3AD",
"(. c #D9B2A8",
"). c #CDB6B3",
"_. c #C8BBB8",
"`. c #DCBCB4",
"'. c #D7B8B7",
"]. c #CDAFB0",
"[. c #E4B9B3",
"{. c #E5B9B6",
"}. c #E4B5AF",
"|. c #DBC4BB",
" X c #CEC7BF",
".X c #E7C3BB",
"XX c #B9B7C8",
"oX c #B5B8CC",
"OX c #CDB8C4",
"+X c #BFC0D5",
"@X c #CAC4C9",
"#X c #D8C9C7",
"$X c #D9D2CC",
"%X c #C7C7D7",
"&X c #D6C8D4",
"*X c #D4D2D4",
"=X c #DBD6D6",
"-X c #D5DBD6",
";X c #DADAD6",
":X c #D6D6DA",
">X c #DAD7D9",
",X c #D6DCDA",
"<X c #DDDBDC",
"1X c #CFD2D7",
"2X c #E2CCC7",
"3X c #E5D2CC",
"4X c #E9D0C6",
"5X c #E3D5D3",
"6X c #E3D9D7",
"7X c #ECDBD5",
"8X c #E2DDDD",
"9X c #EBDDDC",
"0X c #E4D7D8",
"qX c #F1DEDB",
"wX c #EDCDCD",
"eX c #DDE1DE",
"rX c #E2E1DE",
"tX c #EAE1DD",
"yX c #F2E2DD",
"uX c #F8E4DD",
"iX c #DEDDE1",
"pX c #DAD6E8",
"aX c #CFD5EC",
"sX c #E3DEE1",
"dX c #E9DEE1",
"fX c #E4D8E6",
"gX c #DFE1E2",
"hX c #DEE4FA",
"jX c #E3E2E3",
"kX c #EBE3E3",
"lX c #E5E4E9",
"zX c #EBE5EB",
"xX c #EBE9EC",
"cX c #E8EAE7",
"vX c #F3E3E2",
"bX c #F5EAE9",
"nX c #E9E9F5",
"mX c #F2E9F6",
"MX c #F8F5FA",
"NX c #EDF0FF",
/* pixels */
">X>X>X<X>X>X-X>X>X>X>X>X>X;X>X>X-X-X-X;X=X=X0X>X=X<X<XA.1 1 r # # & #   K A.gXiXiXiXfX0X=X*X6X$X-X;X>X=X=X>X-X=X:X=X=X*X>X*X>X>X",
">X>X>X>X>X;X>X>X;X<X;X<X<X,X>X>X-X-X-X<X<X5X>X0X0X*X<XK   = # # 1 + $ 1     %XlX:X&X*X>X=X=X;X;X-X<X>X>X,X>X>X>X=X,X,X>X>X;X-X>X",
"<X>X<X;X<X>X>X-X>X<X-X>X>X>X<X,X<X-X;X-X;X=X5X=X;XrXB.  & + O & & + & O 1   ] ,XlX:X>XsX=X=X=X;X<X>X>X;X>X;X>X*X>X>X;X=X>X=X>X>X",
">X>X<X>X>X>X>X>X>X>X>X>X>X>X>X-X;X-X<X<X6X<X<X<X;XtX' . 1 # r . . . O & + 1   A.zX<XpXiX8X<X*X;X;X>X>X>X>X>X>X>X:X=X:X>X:X,X>X=X",
"<X-X>X<X>X>X;X>X>X>X>X>X<X>X>X<X<X;X>X>X;X;X;X;X8X6X_   & . o p g s + . O &   K $XgX*X:X>XfX&XiX>X>X>X<X-X>X,X;X>X;X>X-X=X>X;X,X",
"<X>X<X>X;X<X<X>X>X;X<X>X;X>X>X>X>X=X>X>X;X;X;X;X;X6X3.. 2 ~ =.p.7.4.#.g . o r   n.cX,X,X:X<XiX0X>X<X>X<X>X>X>X>X>X>X>X>X>X>X>X>X",
">X<X>X;X>X,X>X>X<X>X<X-X;X<X<X;X<X<X;XeX;X;X-X;XyX).t 2 i.E.L.L.I.x.j.@.h O &   _ eX,X,XiX:XiX>X<X>X<X>X<X>X>X>X>X<X<X>X;X<X>X>X",
"<X<X<X<X<X<X>X<X<X>X>X>X>X>X>X>X<X6X;X;XeX;X;X-X XY o 3.E.R.L.(.I.Y.7.g.@.T t . 5 ,X,X<XpX:XfX>X<X>X<X>X;X>X<X;X>X>X>X>X>X>X>X>X",
"<X>X<X<X<X>X;X<X-X>X<X<X>X>X<X>XpX0X:XiX-X-XeX-Xt.. *.E.R.P.W.(.U.I.G.5.4.&.T t . A.eXeXiX*XfXfX<X>X;X<X<X>X<X<X<X-X-X>X>X<X;X>X",
"<X<X<X<X<X>X<X>X>X<X>X>X<X<X-X<X0XiX=X<X-X-XeX$Xs O 4.R.R.W.[.}.(.Y.I.j.i.4.~ t   B.gX,X*XpXsX>X<X<X>X<X-X<X>X>X>X>X<X>X>X>X>X>X",
"<X<X<X>X<X<X>X<X<X>X<X;X<X;X<X<X<X0X,X<X-X-XeX_.. g x.!.!.{.4X}.U.J.I.J.5.4. .p   u.gXeX:XlX>XfX<X<X>X>X<X>X-X>X<X<X;X>X>X-X<X<X",
"<X<X<X<X<X>X>X<X<X<X<X<X<X<X<X<X>X<X,X,X,XeXrXV.. 3.!.^.(..X.X/.[.I.h.s.7.4.@.s . ] eX,XiXsX&XfX<X<X<X<X<X<X<X<X>X<X>X<X<X<X>X<X",
"<X<X<X<X<X<X<X<X<X<X>X<X>X<X<X<X<X<X>X<X-XeXrXt.. c.^.T.!.~.'.{././.U.P.l.,.@.a . Y eXeXeX*X>XsX<X<X>X<X<X<X>X<X>X;X<X<X>X<X<X>X",
"<X<X<X<X<X<X<X<X<X<X<X<X<X<X>X<XiX<X<X,X-XeXrX' % c.T.~./.{.{.#X|./.a.%.$.} o.! . r eXcX-X-XsX0X0X<X<X<X<X<X<X<X<X<X>X>X<X>X;X<X",
"<X8X<X<X<X<X<X>X=X<X<X<X=X<X<X<X<X<XeX-XeX-XrX~ C K.!.~.~.`.`.'..Xf.R d R {  .Q & + B.cX;X<XjX>X<X<X<X<X>X<X<X<X<X<X<X<X<X<X<X<X",
"<X<X<X<X<X<X<X<X<X<X<X<X<X<X<X<X<X<XeX-X-XeXtX) C l.'.^.h.L.).'.b.&.&.I.K.$.$.Q g . =.tX;X8X6X<X<X<X>X<X<X<X<X<X>X<X<X>X<X<X<X>X",
"<XrX<X<XeX<XiX<X<X<X<X<X8X<X<X<X<X<XgX,XiX<XdX=.a z.H.$.} &.l.T.j.6./..Xh.%.....s s f OX9X<X<XsX<X<X<X<X<X<X>X<X<X<X<X<X<X<X<X<X",
"<X<XsX<X8X<X<X8X<X<XiX<X<X<X<X<X<X>XiX<XiX<XkXt.p E.-.>.U.H.a.T.7.7.x.&.| ..3.W W d y '.9X<X<X<X<X<X<X<X<X<X<X<X<X>X<X>X>X<X>X<X",
"<X<XiX<X<XjX<XsX<X<X<X<X<X<X<X<XeX>X<X<XsX<XkXz.% z.i.[.wXU.d.K.l.:.&.&.....7.&.| R * T.vX<X<X<X<X<X<X<X<X>X<X<X<X>X<X<X<X>X<X<X",
"rX<X8X<X<X<X<X<X<X8X<X<X<X<X<X8XsX>X<XgX<X>XzX_.2 x.L./.,.| >.T.T.a.g.H.F.7.j.%.| R * E.vX;X<XiX<X<X<X<X<X<X<X<X<X<X<X<X<X<X<X<X",
"<XjX8X<X<XeX<XsX<X<XjX<X<X<X<X<XsX<X<XiXsX=XkX#Xg b.z.%.} | 1.{.Q.h.~.!.U.U.F. ...W % R.vX;X<XiXsX<X<X<X<X<X<X<X<X<X<X<X<X<X<X<X",
"<X<X<XiX8X<X<X<X8X<X<X<XgX8X<XjX8XiX<XjXiX>XdX0XQ z.b.>.h.K.h.{./.a.!..X[.Q.a.%. .R % R.9X8XsX<X<X<X8X<X<X<X<X<X<X<X<X<X<X<X<X<X",
"<X8X8X<X<XrX<XsX<XiX<XjX<X8X<X<X<X<X<XiX<X<X8X9Xz.z.R.K.P.!.!.~.{.d.T..X[.U.7. . .R f '.9X8XjXiX8X<X8X<X<XiX<X8X<X<X<X8X<X<X<X<X",
"<X<X<X<XiX<X<X<X8X<X<X<X<X<X<XsX>X8X<XiXiX<X6XkX|.z.R.`.}.{.{.{.{.,.,.~.}.F.7.%.| Q g 3XdX8X<X<XiX<X<XiX<X<X<X<X<X<X<X<X<X<X<X<X",
"jX<X<XjXsX<XjXjX<X8X<X<X<XiX<X<X<X<X<X<X<XeX8X7X3Xf.R.W.[.wXY.^.{.h.,.<.Q.G.<.$.| E s #X8XtXiX:XgX<X<X<X<X<X<X<X<X<X<X<X<X<X<X<X",
"<XjX8X<X<XrX<X<X<X<X<XsX8X<X8X<X<X8X<XiXiXeXrX8X3Xb.b.P.{.P.,.}./.a...w.J.D.:.:. .W &.5X6X8XiXiXiX<X8X<X8X<X<XiX<XrX<X<XjX<X<X8X",
"8X<X<XjXiX<X<X8X<X8X<XeX<XeX<X<X8X<XiX<XgX<XrX6XtXL.g.R.{.a.1.K.,.} A d.J.s.,.:. .Q |.tX7X0X>XiX<X<X<XjX<X<X<X<X<X<XgX8XjX<X<XiX",
"<XjX<X<X8X<XjX<XsX<XiX8X<XsX8XgX<X8XiXiX<XeXeXtXyXb.f.R.T.>.d.d.#.} ..D.K.<.<.<.#.E 6XtX8XsXiXiXgXsX<X8X<XiX<X<X<X8X<X<X<X<X<X8X",
"jX<XiX8XgX8XrXiX<XgX8XiX<XrXsX<X8X0X<XiXiX<XrX6XtX).4.b.I.&.T..XF.F.G.D.<.J.D.<.&.T $XtX8XdXiX:XiX8XiX<XgX<X8X8X<X<X8X<X<X<X<XrX",
"8XjX8XjXjX<X<XjX8X<X<XjXjX<X<XrX8XsXiXiXgX<XrX6XyX|.g.f.6.7.~.~.L.D.O.d d D.D.D.%.E  XvX0XfXlXiX<XeX<X8X<X<X<X<XrXjX<X<X8XiXsX<X",
"gX<XrX<X8X<XjX8X<X8X<X<X<XiX<X<X8X8XiXiXiXeX<X8X7X|.z.7.%.I.x.%.>.,...O.O.}.D.w.#.E #XxX0XfXsXgX<XjXsX<X8X<X8X<X<XiX<XjX8X<X<XjX",
"<XjXgX8X<XjX8XiXjX<XjX<X8X8XsX8X8X8X8XiXiXiXgX8X7XuXE.f.j.U.%.%.l.l.<.<.G.Y.D.<. .T $XkX0XsXiXgXiX<X<XjX<XjX<XiX<X8X<XjX<XjX<X<X",
"gXgXgXsXjX<XrXsXrXjXrX=XdX8X<XkXkX6X8XjX:XlXiXgX8XbX#Xz.j.Y.G.Y.x.p.s.F.G.I.7.:.~ E k.rX8XjXiXiXsXsXsX8X<X<XsXdXsX8X8X<XeX8X<XrX",
"iXiXgXgXrXjX8X8XsX#XdX8XkXkXjXdX5X9X8XkXsXlXiXlX8X7X7Xb.P.Y.Y.(.T.^.J.F.I.G.:.:.g Q ' n.jXxX*XjXiX8X8XjXkXsX8X<XsX<X<XjX8XeXrX<X",
"jXjXgXsXjX8XsX9X=XB.OXdX0XdX0XOX_.kXsXjXsXiXiXfXjX6XuXb.b.I.I.Q.^./.W.s.Y.s.....g -.r.  @XjXnXiXfXsXdXiX<X<X8XsX<X8X<X<X<XeX<XeX",
"sXiXsXsXsXdXsX0X6Xt.k.vX8XdXdXB.B.kX0XsXiXiXiXiXdXkXyX|.f.j.I.(.(.J.U.7.I... .E ! u.] X ( jXjX<X<XsXsXsXsXsXsXiX8XiXiX8XrX6XeX8X",
"dXsXsXsXsX8XsXdXkXt.` vX9XqXqXk.k.kX8XrXjXiXlXlX8XdX9X7XL.7.j.(.}.J.F.7.s.| W Q 0.M.] $ X n.mXzXlXjX<X>XiXsXgX<XiXsXeX8XeXeXrXeX",
"sXsXsXsXdXdXdX9XkXM.! $X7X7X0Xp.k.vX8XrXjX<XjXsXsX0X9XvX#X4.3.j.U.Y.:.>.:.W T 3.Z.M.U X < = A.zXsXnXnXlXfXiXfXiXsXiXsXjXrX6XeX8X",
"sXsXsXsXsX8XdXdXvX@X*._.yXyXtXk.V.kXrX8XiXiXjXiXkX5X9XyXqXP.&.5.7.7.$.:.;.Q ` V.A.n.X 3 9 X 1 r.8.M.%XlXnXlXiXiXgXiXsX<X<XrX6XeX",
"sXsXsXsXsX8XsXdX9X6Xu.].uX7X7Xb.C.tXjXtXiXjXjXgXsX8X9X9XtXyX-.4.7.:.5.p.-.` B.OXoXq.@ - = z 1   X : U 8.A.iXnXiXiXgXiX8XrX<XrXrX",
"sXjXsXsXiXsXsXjXtX6XB.k.5XuX4XC.C.kXrX8X8XjX<XjX8XjXkX6X9XuX_.-.7.a.6.g.*.M.OXoX%XV @ 8 9 0 w b K v 7 < b _ S.lXxXlXlXgX<XcX*XrX",
"iXjXgXjXgXjXjX<XkX6XC.3.#XyX$Xz._.kX8X8X8XjXgXjXjX=X9XkX8XtXtXz.7.a.d.t.v.OXoXOXm.; 8 6 7 w 9 z 7 w v U b < S ' @XiX:XcXgX>XcXrX",
"gXeXgXiXiXgXrXrXrX6X Xf.2XuX.Xz. XjX8X8X8XjX<XjXjXcX8XjX9XkXbXV.&.p.p.0.OXaXoX+X9.@ v 7 w v 6 7 w v z 0 S U 5 X   u.MXgX;X>XrXrX",
"jXgXsXgXjXgXrXiX8XtX@Xk.).uX|.b.@XrX8XjX8XjXeXjXsX8XjXxXjX=XbX5X-.g.v.Z.OXaX+X+XP 8 k j b L 6 k 6 v D v v S w 5 # X S.MXcXjX;X<X",
"iXjXsXgXsXsXgXsX8XyX#Xz.z..X|.z.#XkX8XcX<XjXeXrXjXjXjX,XjXmX<X>Xk.t.N.&X&X%XaXm.@ B w b v v l j n x x L U c 0 0 0   ] eX*XjXjXeX",
"sXsXsXiXsXsXsXdX8XvXyXb.L.|.|.3.*XjX<XjXrXrXrXeX<XxXjX<XmX@X_ A.#Xt.OXpXpXaXhX9.@ v v b b D H q l D P L S b 0 4 # <   1XMX<X;XeX",
"8XdXdXsXsXsXsXdXtXtX$X).R.|./.4.5XjX8XjX<XrXrX<XeXgXcXcXA.K X &XdXZ.MXnXhXhX%Xx x v v b v D c l D D P D L c 0 0 , 5   B.cX*XcX8X",
"dXsXsXsXsXsXdX8XtX3XE.R.I.(.(.g.6XjX8XjXeXrXjXrXgXgXxXS., 4 K dXN.~.mXmXhXhXoX@ P D b N S x > H c P I P D b 0 4 < < X _ xXrX<XrX",
"gXsXgXgXrX8XtXyX3XE.f.,.l.`.J.p.3XzX0XjXjXcX,XlXzXmXoX- S - ] OXu i OXMXhXnX9.; P c N N x k c l n D / ^ m z 7 4 3 < $ X *XcXjXjX",
"jXgXeXrXrX8X7XtX2XE.K.R %.<.J.f.$XjXsX8XeXeXeXNXmXZ.c v q w r.v.2.+.Z OXNXNXG n M m V V b c H x M F ^ I m z k 8 < < 5   A.MX-X<X",
"gXjXgXrXrXrX7XyX2Xp.T.:.| s.{.>.#XkXkX8XgXgXgXgXM.7 v b S w ] w.[ +.* y.MXoX; J M P V m v M H H D ^ I P m x k 7 5 < w   n.mX<X8X",
"jXiXgXjXrXrXrXyX).f.l.H.<.(.^.@.#XkX8XcXeXgXNXn.- ) 0 S I < *.1.[ i Z &XpXy.; G n ^ V N B m c F I P F m v x z 7 7 : 5   _ iXcX8X",
"lXiXgXjXgXrXtXtX).-.i.a.J.G.D.| #XkX=XjXgXgXeXS V 9 N c U X 0.w.2.y w.MXpX( G G M G V M L n c I P ^ D n m x k 7 5 < 5 = 1 *XjXjX",
"gXfXjXgXrXrXtXyX'.@.6.a.s.,.7. .OXbX>XjXgXcXS.$ V U c 3 c 1 q.1.+.y v.MX+X> F G G M V V D l l ^ I I m x m v 0 0 0 = 1 9   -XcXjX",
"lXgXjXgXjXrXtXyX).f.-.5.G.7.5.6.).xXjXcXgXgXe.$ b N 9 K w 1 ! 1.+.u OXmXS.@ J G F D F P n l H G I ^ m x M v z z w = < 5 X y.xXsX",
"gXjXgXlXjXrXrXtX3Xp.6.7.j.7.G...Z.cXjXgXgXgXY q V N z z 0 r C o.+.A fXMX9.j J G G H I V l c G ^ ^ ^ m x L v z w 5 4 < 1 # = jXjX",
"jXjXjXgXcXrXrX9X3Xb.c.g.d.F.F.| V.kXkXsXlX1X- S V 7 z 7 5 e Z X.O.{ fXnXV P I J H G G D m H G ^ / ^ l c U v z 0 0 1 < < 9   A.xX",
"jXgXcXjXrXjXjXtXtXz.g.>.d.H.I. .V.MX>X<XnX@XX U N 7 z 7 5 s Z X.O.A fXoX; ^ ^ F H F L D D H J ^ / I k l P c 7 0 7 3 < < e   B.xX",
"jXjXjXjXjXgXjXrXbX'.c.l.g.I.7.~ V.nXsXsXMXS.X U b 7 7 7 5 s A X.X.) mXm.@ / F ^ F F M M H F ^ / ^ P k l D b 7 0 7 4 : < w   8.xX",
"jXjXjXeXjXjXjXjX9X5XV.l.g.g.g.&.u.fXxXdXlX8., S z 3 8 < 5 C R O.o.o.mX9.8 / M ^ F F D L F I ^ ^ ^ D 7 x D v z k w 4 1 1 5 X U jX",
"9X8XjXjXgXcXgXjXkX5Xp.E.x.p.-.*.q.jXzXzX>Xq L S z 3 8 3 9 C [ O.[ q.pXz ^ ^ M M G G H D F ^ ^ ^ I D 6 c D v z w z 3 1 5 1 = # <X",
"kXdXjXjXlXgXgXlXbX&Xt.t.g.c.f.@.` xXsXmX1X  U b j 3 6 3 e Z { O.A w.Z.; ( ^ / M F G F F F M J ^ I c > D v S z w z < = 4 1 5   1X",
"tXtXjXjXgXgXlXjXsX@X'.a ` ~ &.s ] <XxXzXy.$ L z j 3 6 4 e Z [ +.{ q.q.8 ( / / / F G P F J ^ ^ P I c > S v D z 0 w 5 = < 1 0   @X",
"tXrXrXjXgXgXgXfXsXV.&X).E.p.@.z.r.A.MX@X5 w S c 7 3 4 5 b A [ 2.o.) ( / / / M ^ H D P I P F ^ I I x - D S U z 7 5 w < = 1 5   @X"
};
