/* XPM */
static char *cff315b5623e45b0d01ca909fcd5d5cfrZXis5mcoLWcz6RI[] = {
/* columns rows colors chars-per-pixel */
"64 64 256 2 ",
"   c #020201",
".  c #0B0202",
"X  c #04040C",
"o  c #0A060A",
"O  c #0B0B0C",
"+  c #070A06",
"@  c #160807",
"#  c #0D130A",
"$  c #19150A",
"%  c #020412",
"&  c #060A15",
"*  c #0A0B15",
"=  c #060D1B",
"-  c #090E1B",
";  c #090613",
":  c #160D15",
">  c #06111D",
",  c #0A111D",
"<  c #0B1315",
"1  c #14141B",
"2  c #171717",
"3  c #260303",
"4  c #25130A",
"5  c #251C18",
"6  c #320D0C",
"7  c #192410",
"8  c #26221A",
"9  c #302E15",
"0  c #080E20",
"q  c #0B1122",
"w  c #061220",
"e  c #171A25",
"r  c #241A22",
"t  c #1C252A",
"y  c #1E2431",
"u  c #292827",
"i  c #362B27",
"p  c #312F31",
"a  c #500D0C",
"s  c #660E10",
"d  c #443B37",
"f  c #4F382B",
"g  c #6D3129",
"h  c #5C311B",
"j  c #3D530A",
"k  c #445C09",
"l  c #485A17",
"z  c #4C4E17",
"x  c #496409",
"c  c #516A14",
"v  c #574437",
"b  c #4A5328",
"n  c #784C39",
"m  c #6E4F30",
"M  c #626E2C",
"N  c #38424F",
"B  c #3B4D6C",
"V  c #4C4C4C",
"C  c #675648",
"Z  c #7B5644",
"A  c #705254",
"S  c #7C755D",
"D  c #736856",
"F  c #745D65",
"G  c #706E6B",
"H  c #2A3040",
"J  c #86251E",
"K  c #942C2C",
"L  c #B03234",
"P  c #A01A20",
"I  c #D01A15",
"U  c #ED1E1D",
"Y  c #D92519",
"T  c #CD2912",
"R  c #EC241D",
"E  c #CF1D24",
"W  c #F51E25",
"Q  c #EA1B2B",
"!  c #CB2627",
"~  c #DB2A2C",
"^  c #D62627",
"/  c #D82A33",
"(  c #DA353B",
")  c #CF3431",
"_  c #EC2324",
"`  c #EB252C",
"'  c #E32A2C",
"]  c #EC2A2C",
"[  c #E42726",
"{  c #F32425",
"}  c #F4252C",
"|  c #FB252B",
" . c #F22A2C",
".. c #F72826",
"X. c #EA322A",
"o. c #E82833",
"O. c #F62832",
"+. c #EF3634",
"@. c #8A573A",
"#. c #B0503B",
"$. c #8D603B",
"%. c #D14930",
"&. c #F04A35",
"*. c #DD6528",
"=. c #AE3F44",
"-. c #865A47",
";. c #935B48",
":. c #8C5352",
">. c #B0564B",
",. c #8A644A",
"<. c #996549",
"1. c #896757",
"2. c #986956",
"3. c #85775B",
"4. c #9C755A",
"5. c #94754F",
"6. c #A4694B",
"7. c #A56D54",
"8. c #A9755B",
"9. c #B47A5B",
"0. c #B56958",
"q. c #996964",
"w. c #857B65",
"e. c #8B7C64",
"r. c #857B6B",
"t. c #887968",
"y. c #997966",
"u. c #927575",
"i. c #AC7C64",
"p. c #A77867",
"a. c #B57D64",
"s. c #AB7771",
"d. c #D34D49",
"f. c #F56E51",
"g. c #CF766A",
"h. c #E85B52",
"j. c #E23642",
"k. c #718933",
"l. c #768B43",
"z. c #EF853A",
"x. c #8F9454",
"c. c #8D8167",
"v. c #938564",
"b. c #988969",
"n. c #9A8975",
"m. c #9E966C",
"M. c #A9856B",
"N. c #B6856A",
"B. c #AB8775",
"V. c #BB8B74",
"C. c #B78A78",
"Z. c #AA9777",
"A. c #BD927B",
"S. c #B79879",
"D. c #A8946D",
"F. c #B7A57C",
"G. c #A7B072",
"H. c #9F9E5E",
"J. c #FA9556",
"K. c #FCAF56",
"L. c #C48C76",
"P. c #C3947C",
"I. c #C9947B",
"U. c #CD8B70",
"Y. c #F58966",
"T. c #FFB569",
"R. c #C1A07F",
"E. c #F9C35A",
"W. c #EEC752",
"Q. c #FAC66A",
"!. c #596C8F",
"~. c #6F7992",
"^. c #60739B",
"/. c #AD7B8D",
"(. c #977483",
"). c #778496",
"_. c #7788A9",
"`. c #8F8C8E",
"'. c #B98983",
"]. c #BD9382",
"[. c #B99988",
"{. c #AC928E",
"}. c #BBA887",
"|. c #BBA496",
" X c #B0AE90",
".X c #8999B8",
"XX c #8E98AE",
"oX c #91A0BE",
"OX c #AEADB1",
"+X c #AA94A0",
"@X c #C39482",
"#X c #CB9B84",
"$X c #C49B8A",
"%X c #CB9C8C",
"&X c #C79984",
"*X c #D49D86",
"=X c #C99D92",
"-X c #CA928E",
";X c #C7A58A",
":X c #D4A48C",
">X c #C4B38A",
",X c #CDA393",
"<X c #C8A895",
"1X c #D4A998",
"2X c #C8B698",
"3X c #D7B19E",
"4X c #C8ADA6",
"5X c #D8ABA4",
"6X c #C7B5AA",
"7X c #DAB4A4",
"8X c #CCB7B5",
"9X c #E3B9AC",
"0X c #E1B49D",
"qX c #B6C78D",
"wX c #C7C999",
"eX c #DBD9BB",
"rX c #CECEB0",
"tX c #E1DBBC",
"yX c #F2C3B3",
"uX c #DEE1BE",
"iX c #8B9AC4",
"pX c #93A5C6",
"aX c #ACB7CC",
"sX c #B9C6D8",
"dX c #BEC3CD",
"fX c #B7C9E5",
"gX c #D7CCC6",
"hX c #DCDCC3",
"jX c #D9D9C9",
"kX c #D1D0D2",
"lX c #E3DCC4",
"zX c #E4DDCA",
"xX c #E6D8C9",
"cX c #E5DAD3",
"vX c #DEE2C9",
"bX c #E5E2C7",
"nX c #E5E6D9",
"mX c #F1EDD8",
"MX c #C9D5EA",
"NX c #D6DAE7",
"BX c #D0DDF7",
"VX c #DBE3ED",
"CX c #D8E6EC",
"ZX c #DAE6F7",
"AX c #E8E8E6",
"SX c #F4ECE9",
"DX c #F6F5EA",
"FX c #E3EDFD",
"GX c #E5EAF6",
"HX c #EBF3FE",
"JX c #E6F4FF",
"KX c #FEFCFC",
"LX c #F7F7F7",
"PX c #F2F0EF",
"IX c #E3DFE0",
"UX c #C1BECF",
/* pixels */
"Q +.f.J.K.W.W.W.W.E.Q.Q.T.J.f.X.R R [ ) s.+X`.+X/./.(.F A 8XgXjXcXgXgX XS w.w.S S l.r.w.r.r.r.r.t.S r.r.r.c.S c.c.r.r.w.w.3.3.3.",
"o.[ I %.z.W.K.W.E.E.E.Q.K.*.T Y R _ Q E g.-X+X+X/./.(.F A 4XgXgXcXgXhX`.D G S w.c.S r.r.t.t.t.w.r.t.w.r.w.r.c.G n.G r.r.w.w.3.S ",
"Y ] Y T *.K.E.K.E.Q.Q.Q.K.*.T ..Y X.| P 0.-X+X/././.(.A A 8XxXjXgXgXgX{.(.l.c.c.S w.3.3.S w.t.t.w.w.w.w.e.w.w.e.r.r.r.r.c.3.3.3.",
"Q [ R T f.K.K.T.K.T.Q.Q.E.z.T R [ U W E d./.{.{./.(.:.V A B.`.`.`.(.`.F V C D G c.r.c.v.1.t.y.3.e.w.w.w.3.w.w.w.r.r.r.r.3.c.3.3.",
"[ ^ [ T J.T.K.K.f.f.J.E.Q.J.h.{ { U O.o.d./.{.u.B V u 5 @ @           . X + $ i f v D 3.n.e.3.c.3.e.e.c.3.v.e.c.r.r.c.r.c.c.c.S ",
"Y [ [ &.Y.T.z.*.T T %.z.K.T.f.Y O.W O.( L q.V # X X   + . . . O + O O # O   . + . $ 8 i C t.t.r.e.e.e.e.3.v.v.v.v.c.c.c.c.c.x.c.",
"o.[ I f.Y.f.Y T X.R T T &.f.f.&.~ / / d.g @       : O   o O @ o O O O X O X O # @ + u i . 9 S n.v.c.v.v.v.v.v.v.v.v.c.n.b.v.3.3.",
"E [ Y &.&.I Y R R ......Y [ +.j.! d.K a 3   # # : : X X O X o o   X X     O o   O 2 2 i d 5 u D n.c.c.v.v.v.v.v.b.b.b.b.b.b.v.v.",
"[ ~ [ U U U _ _ R ......[ X.~ ( L g a 3 @ # : : r : < < 2 t 1 < u 2 < O 1 1 * r e 1 e r u N V 7 S n.b.c.b.v.v.m.v.b.v.b.b.b.v.v.",
"^ [ [ { U W _ { O...{ _ X.( %.L s 9 6 5 8 2 e r r r u u t t t t u u u 8 u u 2 2 e 2 1 1 < u d d V n.n.n.v.D.v.b.D.b.D.D.m.D.m.b.",
"^ [ o.Q W U ..R o.o.O._ X.) L a 4 7 9 u p p p p u r 7 2 # + X X . 4 i 5 @ : . o O * * +   X u d V S m.n.D.b.F.D.D.D.D.D.D.D.D.D.",
"^ ~ o.} { U U R o.o.+.] ~ #.a # 7 t t u p p d u 5 $ @ + # 2 4 4 4 4 @ . 4 5 4 . . . . @ o X : u v v S {.F.Z.Z.G.Z.Z.F.Z.Z.Z.F.Z.",
"^ ~ O.O...W W W O.|  .~ %.J 6 $ < 7 t u u u i i v C D D 1.1.u.u.u.B.t.C f f f v f f 4 . . . $ 5 u p d D m.}.[.F.G.F.F.F.F.F.F.F.",
"! ~ O.Q { { W W | O.' ! L a 6 5 t 2 y H p i f D u.{.}.S.[.].*X-X|.|.|.C.p.y.M.M.y.y.1.m f f 6 4 p V d 8 S  X}.}.>X XQ.R.}.>X>XF.",
"/ / o.Q { { { _ Q W [ ~ L 6 6 ; : 2 u V d d A s.A.P.S.S.&X;X*X&X@X$X$X;X$XP.P.D.N.V.M.8.8.,.n f p V v i 9 [.>X>X>X>XR.R.wXR.>XF.",
"! / o.o.{ _ [ ] ..Q { ~ J 3 6 o : $ 8 p f A p.@X@XI.S.P.;XS.#X&X,X,X;X,X;X:X:XP.V.N.N.M.i.8.2.-.f i V i . S 2X2X>X>XwXR.>X>X>XwX",
"/ ~ o.W ` ` ] X.{ } Q j.J @ @ # @ $ 8 i m 3.C.&X#XP.A.C.Z.N.C.A.A.[.;X,X,X,X%X%XP.V.9.N.N.9.6.<.A f p i   C  X2X2XwX2XwX2X}. XrX",
"/ ~ ` ` ` ` _ X.} | W ( J 3 $ $ 2 9 f f D M.;XS.A.A.A.C.].$X%X$X$X].[.[.$X,X=X=X].N.8.6.6.6.6.6.-.v $ # # +  XrXtXtXtXtXtXtXuXmX",
"^ ~ o.` } ] {  .{ { ` j.K 3 4 9 8 9 f v 1.D.V.C.V.S.&X$X,X3X7X7X7X1X<X;X%X,X,X=X$X%XI.N.6.6.<.$.:.C 5 2 8   {.mXtXlXmXmXDXDXDXDX",
"! ~ o.` `  .....} ` o.( L a 4 8 i i f 1.B.M.M.V.P.&X,X,X$X[.&X%X1X1X7X7X1X5X7X7X,X1X:XR.L.N.7.<.;.n 9 . p   |.DXmXbXmXDXDXDXDXDX",
"~ ~ ' o.] } | | ..+.o.) d.:.g 8 f C 1.b.V.V.V.V.P.;X:X;X[.].C.C.[.;X3X3X3X3X1X3X=X'.M.i.N.V.M.<.@.Z 4 8     gXKXDXSXDXKXKXDXKXDX",
"^ ~ / X. .{ | | { +.[ j.g.C.B.1.f Z y.p.8.M.L.S.P.#X%X&X$X%X'.B.S.@X,X1X7X3X[.$X[.C.B.i.M.M.8.<.;.-.f . O kXKXPXDXDXLXKXKXKXLXDX",
"! ~ ~ o.} | W | { X.o.h.g.@X%X[.-.Z 5.i.M.N.I.:XP.P.C.].C.s.q.2.4.M.P.1X0X1XC.].'.].@X].V.M.4.<.@.<.f i rXKXKXKXDXLXLXLXLXLXDXDX",
"! ~ ' o.O.| | |  .+.E h.g.L.&XC.2.-.<.9.9.U.I.I.V.p.s.C.M.-.Z ,.,.8.P.:X0X&Xq.M.N.y.4.p.p.8.2.<.6.;.f {.LXKXLXLXPXPXPXPXPXPXnXDX",
"^ ~ [  .} } | }  .+.~ d.U.:XV.M.8.<.6.7.9.N.I.I.V.A.@X&X,X,XC.p.N.N.N.P.:XS.<.B.p.N.2.n ;.,.n 6.9.@.y.mXKXLXKXAXDXnXnXnXNXnXnXvX",
"! ) [ O.O.} | ....[ ^ h.Y.I.;X#Xi.<.6.7.9.U.U.U.I.&X%X,X,X$X].A.N.V.L.#XI.N.2.8.A.P.%X#XN.8.2.8.9.n |.DXLXLXDXDXDXAXnXnXvXbXjXhX",
"! ^ ` } } } {  ...X.T h.U.N.L.L.0.6.<.7.9.U.I.I.*X1X7X1X&XC.C.L.V.L.L.I.P.L.i.p.P.i.V.P.L.N.9.9.0.m yXLXSXDXSXDXnXnXnXvXzXlXbXuX",
"! ^ o.}  . . . . .] [ h.g.U.U.N.7.6.<.7.9.U.I.:X:X1X=XA.C.-X,X-XI.:XI.:X*X@XV.7.a.V.V.g.L.:XI.9.6.@.wXDXAXAXDXnXvXvXvXvXlXbXbXbX",
"! ^ [ } O. . .]  ._ +.^ f.I.:XN.7.6.<.6.9.9.L.I.*X%X%X%X,X1X%XC.a.*X#X%X1X1XI.N.2.V.*X*XI.I.U.9.$.m wXmXAXnXnXjXhXlXbXxXzXbXtXbX",
"T ^ ' ] }  . . . ._ O.Y d.Y.Y.6.8.7.6.6.9.9.N.L.*X,X7X9X,XP.a.q.-X5X1X5XyXyX%XC.L.p.a.1X:XU.U.N.#.m yXtXjXvXrXjXeXtXtXtXxXbXtXbX",
"! ^ ~ ] ` } O.] [  .| O.d.g.g.6.9.7.<.6.9.N.N.V.%X1X5X1XC.C.@X@X@X@X'.'.%X5XC.q.&X2.;.I.:XU.N.N.@.5.rXrXeXgXrXlXeXeXxXxXxXbXbXbX",
"! ^ ' ] O. . .}  ...{ ..~ %.d.>.9.6.<.6.9.N.9.U.V.%X1XC.C.5X9X,X[.'.[.C.q.p.q.2.:.C.s.a.*XI.U.9.h N.rXtXvXjXnXeXhXeXtXtXxXxXxXbX",
"/ ^ o.o.o. .} ....{ ..{ X.^ T d.0.4.6.0.6.N.N.9.V.P.'.=X4X5X4X5X8X8X5X5X5X-X'.'.'.[.=X'.-X-X9.6.h >XuXhXvXvXvXhXvXvXuXuXvXhXzXxX",
"E / ~ ' ]  ...{ ......}  .` ^ d.0.2.<.6.z.9.9.N.P.P.s.C.s./.[.4X8X8X9X5X5X5X=X'.[./.[.'.C.q.$.m Z wXbXbXvXvXjXvXvXuXuXuXuXhXlXlX",
"E ^ [ ' ] ]  .} ..| ..{  .O.] ( 0.7.;.6.a.N.8.N.V.;XC.p.q.q.q.q.s././.'./.s.q.q.2.2.p.L.&XN.<.g x.rXuXeXkXvXjXvXvXvXuXuXbXtXtXtX",
"! ^ ~ ' ] ]  .] } O.O.} }  .{ ) #.6.6.$.0.a.i.8.V.;XP.@X-X%X@Xq.q.s.q.q.:.A g g g 2.i.L.L.2.@.m G.wXwXrXrXrXrXuXvXhXvXvXbXlXlXlX",
"I ^ ^ _ ] ]  . . . .] o.} } { [ %.#.#.$.;.p.M.p.V.V.A.,X3X7X5X9X1X-X-Xs.s.q.:.:.8.L.@X:XD.$.M $.H.G.G. XqXqXqXrXqXuXuXvXhXjXjXcX",
"Y ^ [ [ ] O.O. .O.] } X.} _ { ` %.#.#.;.Z ,.2.q.8.a.V.;X;X$X,X5X1X-Xs.'.g.s.s.g.C.N.a.N.$.$.m m M M k.l.l.x.G.qXqXqXuXuXhXjXkXjX",
"E ^ ~ ' ] ] O.| | ..{  .X.R ] ' ) >.;.<.,.Z -.<.<.9.M.R.}.<X,X1X5X5X=X].].P.@Xs.a.N.N.<.m M z l x k k l x M k.l.G.G.qXqXrXwXrXvX",
"! ^ ~ ~ o. ...| | ..{  .[ ~ ~ ! K >.i.2.2.,.-.,.,.,.n 4.A.<X,X5X5X5X<X1X>X&XA.N.p.4.@.m z m z l c l l x k x x c k.k.l.G.G.G. XqX",
"E ! / o.` ` { { { { | o./ ( L s :.7X1.i.N.8.4.,.5.5.,.-.2.C.=X=X5X$X[.[.;XF.M.4.<.n g m m M l k k x k k x x x k x x x x c c k.k.",
"! ! E [ `  . .{ O.} o.( =.J s @ OXkXu.B.C.i.N.v.5.M.D.p.;.:.p.s.s./.{.S.B.4.5.,.Z n Z Z m 9 z b j k x k j k x x k x x x x x x x ",
"/ E ! / [ +...| Q j.L K a @ 4 o `.CXOXu.V.L.M.H.4.v.p.B.s.p.q.1.1.1.1.1.D Z n n Z Z -.y.n . 4 7 j k x x x x k j x k x x c x x c ",
"E ! ! ! ~ o.o.j.L K a @ : 1 y % ).MXnX Xn.D.R.I.F.B.y.p.M.B.B.b.b.M.y.4.1.:.1.1.1.y.y.u.i . $   # 7 j b c c c c k k x x x x x x ",
"E L ! / ( L J s 3 6 @ 1 e q q ; V UXNXAX6X`.}.;X[.P.[.Z.{.Z.B.b.e.v.y.y.q.1.y.y.B.s.{.|.5 . o : +   + 7 j b b l b j j j x x x x ",
"K L L P s a 3 @ # ; X < & & q e % aXVXAXPXgX X[.<X=X[.F.}.}.|.}.[.S.Z.C.B.'.'.[.+X8XjXOX  e o X O & +       $ 9 b b b b x x x c ",
"K s 6 3 @ @ : e 1 q q e < * X t X `.BXNXVXPXAX8X|.[.;X<X<X>X<X4X6X|.[.Z.[.S.|.4XcXAXAX).X y % * % o + O + .     + + 7 j j k l b ",
"3 ; @ : 1 - - 0 q q q - % 1 X 1   B kXVXGXGXKXSXxX6X}.}.|.<X<X4X}.|.[.|.|.4XgXSXAXVXMXG & y X = ; ; X X X X O * < & + + < 7 7 7 ",
": : : * < , , - q q 0 - - * * = y % OXZXBXZXGXKXKXSXgX8X|.|.|.{.|.4X4X8XgXAXPXAXNXHXaXq 0 - * - ; * ; ; X X X X X O < < < O +   ",
"- ; ; ; - , 1 e 1 1 1 - - - = ; e % G BXGXVXGXGXHXLXKXIXeXOX6XrX4X8X8XIXPXLXGXZXVXNXXX% e 1 - ; * * ; ; O X X O X % & & * * - - ",
"; & ; = & & , , - 1 - - - = - = 0 = q kXGXNXGXGXHXKXGXKXGXkXkXdXUXcXLXLXHXGXFXFXZXMX~.o y % ; * * * * ; O X X X ; & & ; ; * - q ",
"= - ; ; ; ; & & - - - - - - - - - y % oXGXGXZXHXGXHXLXHXdX`.oX_.`.OXGXLXLXZXJXFXBXdXB % e ; ; 1 * * * * & * X & & O * < - = ; = ",
"& & * = & & * , , & - - - , > - ; e ; V CXJXFXJXHXFXJXsX^.XX.X_..X^.~.BXJXZXZXZXCXaX- & , < * * * * * ; & ; ; O X % ; = = = = * ",
"& = * - , , , , , , = > , > = = = ; y % dXCXJXFXZXJXfXN _._.iXiX_..X!.B ZXZXJXZXVXXXX t & > * * * * ; ; & ; & & % & & = * = - - ",
"* = = , , - * & , > > , > > 0 > - * y X `.CXHXJXJXJXsXaX).^.iXiX_.!.!.XXaXBXZXFXNX~.X y & & & > * = ; = ; * - * - * = ; = ; - - ",
"& & & = , , , > > < , > > > = = - 0 e   N MXGXHXJXfXMXZXBX!._.iX^.B fXBXBXMXZXGXMXV X e & > & & ; ; = ; & & * , & & ; = = = = - ",
"= & & = > , q = , , w , > > > = 0 q 0 y % aXGXCXFXZXMXZXZXiX^.pX^.aXFXZXHXFXFXGXkX= = , , & = > * * - ; ; = = % = = = = = = = = ",
"= = & & & > , q , > > > > > 0 > 0 0 0 y X G VXJXFXZXMXBXBX_.pXpX^.pXHXHXZXHXGXLXOX  e = > > > > - = = ; = ; = = = = = = = = = = ",
"> & = & & = = q , > , , w > > > q w w e = = kXCXVXFXBXMX.X~.oXpX_.~.HXFXNXGXNXVXXXX y & & > > & - = * = = = = = = = = = = = = = ",
"& = = = & & = = , q , 0 w 0 0 0 w q 0 = y % oXHXVXFXFXaX~.pXoXpXiX~.MXFXGXVXNXNXG X u ; > > > & = = = = ; = = = = = = 0 0 - = = ",
"= & , > = = = = > , 0 q q > q > = q q & y = V GXFXZXHXXX_.aXoXpX.XXXoXZXGXGXZXNXy * e * , , = , * & = = = = 0 0 w 0 0 0 0 0 = = ",
"& , - - - - = = = = > 0 0 q q = q & q > % y % aXHXZXMX~.pX_.oXoX.X.X).sXGXGXFXUX% e * , 1 * ; < * - , & = 0 0 0 0 0 0 0 0 = = = ",
"- = - - - - = = = 0 = q 0 0 0 > = & - q 0 H % ~.ZXZXaX_.oXoXiXpXiX.X_..XBXZXHXOXX y = e - * O ; & = & > 0 = w w 0 0 0 0 w w = = ",
"1 - = = - 0 - = = = 0 - > - 0 > = e = = q w q % sXBXaX.X_.pXpXpXiX.X_._.fXZXZX_.% y < 1 O : 1 * * < = * 0 0 w 0 q q q 0 0 = > = "
};
